<svg xmlns="http://www.w3.org/2000/svg" xmlns:xlink="http://www.w3.org/1999/xlink" width="77" zoomAndPan="magnify" viewBox="0 0 57.75 62.249996" height="83" preserveAspectRatio="xMidYMid meet" version="1.2"><defs><clipPath id="8e4eb1d8bb"><path d="M 0.21875 16.667969 L 39.449219 16.667969 L 39.449219 55.898438 L 0.21875 55.898438 Z M 0.21875 16.667969 "/></clipPath><clipPath id="db3863b5e6"><path d="M 19.835938 16.667969 C 9.003906 16.667969 0.21875 25.449219 0.21875 36.28125 C 0.21875 47.117188 9.003906 55.898438 19.835938 55.898438 C 30.667969 55.898438 39.449219 47.117188 39.449219 36.28125 C 39.449219 25.449219 30.667969 16.667969 19.835938 16.667969 Z M 19.835938 16.667969 "/></clipPath><clipPath id="af69f184f1"><path d="M 0.128906 3 L 12 3 L 12 21 L 0.128906 21 Z M 0.128906 3 "/></clipPath><clipPath id="b808e1b592"><rect x="0" width="13" y="0" height="30"/></clipPath><clipPath id="f7ea53fadc"><path d="M 1 3 L 12.964844 3 L 12.964844 21 L 1 21 Z M 1 3 "/></clipPath><clipPath id="28987cbfb0"><rect x="0" width="13" y="0" height="30"/></clipPath><clipPath id="bb312064a2"><rect x="0" width="35" y="0" height="39"/></clipPath><clipPath id="af959ad5ca"><rect x="0" width="8" y="0" height="13"/></clipPath></defs><g id="b1088971e9"><g clip-rule="nonzero" clip-path="url(#8e4eb1d8bb)"><g clip-rule="nonzero" clip-path="url(#db3863b5e6)"><path style="fill:none;stroke-width:2;stroke-linecap:butt;stroke-linejoin:miter;stroke:#fbf9f6;stroke-opacity:1;stroke-miterlimit:4;" d="M 26.469378 0.000376528 C 11.85266 0.000376528 -0.00201033 11.849775 -0.00201033 26.466494 C -0.00201033 41.088483 11.85266 52.937882 26.469378 52.937882 C 41.086096 52.937882 52.935495 41.088483 52.935495 26.466494 C 52.935495 11.849775 41.086096 0.000376528 26.469378 0.000376528 Z M 26.469378 0.000376528 " transform="matrix(0.741071,0,0,0.741071,0.22024,16.66769)"/></g></g><g transform="matrix(1,0,0,1,11,17)"><g clip-path="url(#b808e1b592)"><g clip-rule="nonzero" clip-path="url(#af69f184f1)"><g style="fill:#fbf9f6;fill-opacity:1;"><g transform="translate(0.326648, 20.186601)"><path style="stroke:none" d="M 0.34375 0.109375 C 0.269531 0.109375 0.234375 0.0703125 0.234375 0 C 0.234375 -0.0703125 0.269531 -0.109375 0.34375 -0.109375 C 0.550781 -0.109375 0.691406 -0.210938 0.765625 -0.421875 L 3.390625 -9.140625 L 5.546875 -16.265625 L 5.78125 -17.0625 L 5.796875 -17.09375 C 5.785156 -17.09375 5.785156 -17.097656 5.796875 -17.109375 C 5.796875 -17.109375 5.796875 -17.113281 5.796875 -17.125 C 5.816406 -17.125 5.828125 -17.125 5.828125 -17.125 C 5.828125 -17.144531 5.828125 -17.15625 5.828125 -17.15625 C 5.828125 -17.15625 5.832031 -17.15625 5.84375 -17.15625 C 5.875 -17.164062 5.878906 -17.171875 5.859375 -17.171875 C 5.859375 -17.160156 5.859375 -17.160156 5.859375 -17.171875 C 5.878906 -17.171875 5.890625 -17.171875 5.890625 -17.171875 C 5.898438 -17.171875 5.90625 -17.171875 5.90625 -17.171875 C 5.914062 -17.160156 5.921875 -17.160156 5.921875 -17.171875 C 5.910156 -17.171875 5.910156 -17.164062 5.921875 -17.15625 C 5.941406 -17.15625 5.953125 -17.15625 5.953125 -17.15625 C 5.953125 -17.132812 5.953125 -17.132812 5.953125 -17.15625 C 5.953125 -17.15625 5.957031 -17.144531 5.96875 -17.125 C 5.976562 -17.113281 5.984375 -17.109375 5.984375 -17.109375 C 5.984375 -17.097656 5.984375 -17.09375 5.984375 -17.09375 L 11.015625 -0.421875 C 11.078125 -0.210938 11.21875 -0.109375 11.4375 -0.109375 C 11.5 -0.109375 11.53125 -0.0703125 11.53125 0 C 11.53125 0.0703125 11.5 0.109375 11.4375 0.109375 L 10.140625 0.109375 C 10.078125 0.109375 10.046875 0.0703125 10.046875 0 C 10.046875 -0.0703125 10.078125 -0.109375 10.140625 -0.109375 C 10.210938 -0.109375 10.265625 -0.128906 10.296875 -0.171875 C 10.335938 -0.222656 10.34375 -0.289062 10.3125 -0.375 L 9.453125 -3.296875 C 9.429688 -3.304688 9.421875 -3.304688 9.421875 -3.296875 C 8.960938 -4.660156 8.210938 -5.84375 7.171875 -6.84375 C 6.128906 -7.851562 4.925781 -8.566406 3.5625 -8.984375 L 0.953125 -0.375 C 0.929688 -0.289062 0.9375 -0.222656 0.96875 -0.171875 C 1.007812 -0.128906 1.066406 -0.109375 1.140625 -0.109375 C 1.210938 -0.109375 1.25 -0.0703125 1.25 0 C 1.25 0.0703125 1.210938 0.109375 1.140625 0.109375 Z M 3.609375 -9.171875 C 4.765625 -8.828125 5.804688 -8.273438 6.734375 -7.515625 C 7.660156 -6.765625 8.40625 -5.867188 8.96875 -4.828125 L 5.625 -15.890625 Z M 3.609375 -9.171875 "/></g></g></g></g></g><g transform="matrix(1,0,0,1,15,29)"><g clip-path="url(#28987cbfb0)"><g clip-rule="nonzero" clip-path="url(#f7ea53fadc)"><g style="fill:#fbf9f6;fill-opacity:1;"><g transform="translate(1.069366, 20.171423)"><path style="stroke:none" d="M 0.34375 0.109375 C 0.269531 0.109375 0.234375 0.0703125 0.234375 0 C 0.234375 -0.0703125 0.269531 -0.109375 0.34375 -0.109375 C 0.550781 -0.109375 0.691406 -0.210938 0.765625 -0.421875 L 3.390625 -9.140625 L 5.546875 -16.265625 L 5.78125 -17.0625 L 5.796875 -17.09375 C 5.785156 -17.09375 5.785156 -17.097656 5.796875 -17.109375 C 5.796875 -17.109375 5.796875 -17.113281 5.796875 -17.125 C 5.816406 -17.125 5.828125 -17.125 5.828125 -17.125 C 5.828125 -17.144531 5.828125 -17.15625 5.828125 -17.15625 C 5.828125 -17.15625 5.832031 -17.15625 5.84375 -17.15625 C 5.875 -17.164062 5.878906 -17.171875 5.859375 -17.171875 C 5.859375 -17.160156 5.859375 -17.160156 5.859375 -17.171875 C 5.878906 -17.171875 5.890625 -17.171875 5.890625 -17.171875 C 5.898438 -17.171875 5.90625 -17.171875 5.90625 -17.171875 C 5.914062 -17.160156 5.921875 -17.160156 5.921875 -17.171875 C 5.910156 -17.171875 5.910156 -17.164062 5.921875 -17.15625 C 5.941406 -17.15625 5.953125 -17.15625 5.953125 -17.15625 C 5.953125 -17.132812 5.953125 -17.132812 5.953125 -17.15625 C 5.953125 -17.15625 5.957031 -17.144531 5.96875 -17.125 C 5.976562 -17.113281 5.984375 -17.109375 5.984375 -17.109375 C 5.984375 -17.097656 5.984375 -17.09375 5.984375 -17.09375 L 11.015625 -0.421875 C 11.078125 -0.210938 11.21875 -0.109375 11.4375 -0.109375 C 11.5 -0.109375 11.53125 -0.0703125 11.53125 0 C 11.53125 0.0703125 11.5 0.109375 11.4375 0.109375 L 10.140625 0.109375 C 10.078125 0.109375 10.046875 0.0703125 10.046875 0 C 10.046875 -0.0703125 10.078125 -0.109375 10.140625 -0.109375 C 10.210938 -0.109375 10.265625 -0.128906 10.296875 -0.171875 C 10.335938 -0.222656 10.34375 -0.289062 10.3125 -0.375 L 9.453125 -3.296875 C 9.429688 -3.304688 9.421875 -3.304688 9.421875 -3.296875 C 8.960938 -4.660156 8.210938 -5.84375 7.171875 -6.84375 C 6.128906 -7.851562 4.925781 -8.566406 3.5625 -8.984375 L 0.953125 -0.375 C 0.929688 -0.289062 0.9375 -0.222656 0.96875 -0.171875 C 1.007812 -0.128906 1.066406 -0.109375 1.140625 -0.109375 C 1.210938 -0.109375 1.25 -0.0703125 1.25 0 C 1.25 0.0703125 1.210938 0.109375 1.140625 0.109375 Z M 3.609375 -9.171875 C 4.765625 -8.828125 5.804688 -8.273438 6.734375 -7.515625 C 7.660156 -6.765625 8.40625 -5.867188 8.96875 -4.828125 L 5.625 -15.890625 Z M 3.609375 -9.171875 "/></g></g></g></g></g><g transform="matrix(1,0,0,1,15,7)"><g clip-path="url(#bb312064a2)"><path style=" stroke:none;fill-rule:nonzero;fill:#d8e8f2;fill-opacity:1;" d="M 1.714844 9.058594 C 1.691406 8.910156 1.699219 8.757812 1.734375 8.609375 C 1.769531 8.460938 1.832031 8.324219 1.921875 8.199219 C 2.011719 8.074219 2.121094 7.972656 2.25 7.890625 C 2.378906 7.808594 2.519531 7.753906 2.667969 7.726562 C 3.125 7.667969 3.585938 7.625 4.046875 7.597656 C 4.507812 7.570312 4.96875 7.558594 5.429688 7.558594 C 5.894531 7.5625 6.355469 7.578125 6.816406 7.609375 C 7.277344 7.640625 7.734375 7.683594 8.191406 7.746094 C 8.652344 7.804688 9.105469 7.878906 9.558594 7.96875 C 10.011719 8.058594 10.460938 8.160156 10.910156 8.277344 C 11.355469 8.398438 11.796875 8.527344 12.234375 8.675781 C 12.671875 8.820312 13.105469 8.980469 13.535156 9.15625 C 13.960938 9.328125 14.382812 9.515625 14.800781 9.714844 C 15.214844 9.917969 15.625 10.128906 16.027344 10.355469 C 16.429688 10.582031 16.824219 10.824219 17.210938 11.074219 C 17.597656 11.324219 17.976562 11.589844 18.347656 11.867188 C 18.71875 12.140625 19.078125 12.429688 19.429688 12.726562 C 19.78125 13.027344 20.125 13.335938 20.457031 13.65625 C 20.789062 13.976562 21.109375 14.308594 21.421875 14.648438 C 21.734375 14.992188 22.035156 15.34375 22.320312 15.703125 C 22.609375 16.0625 22.886719 16.433594 23.152344 16.808594 C 23.417969 17.1875 23.671875 17.574219 23.910156 17.96875 C 24.152344 18.363281 24.378906 18.761719 24.59375 19.171875 C 24.808594 19.582031 25.011719 19.996094 25.199219 20.417969 C 25.390625 20.839844 25.566406 21.265625 25.726562 21.699219 C 25.886719 22.132812 26.035156 22.570312 26.167969 23.011719 C 26.300781 23.453125 26.421875 23.898438 26.527344 24.347656 C 26.632812 24.796875 26.722656 25.25 26.796875 25.707031 C 26.875 26.160156 26.9375 26.617188 26.984375 27.078125 C 27.03125 27.539062 27.0625 27.996094 27.082031 28.457031 C 27.097656 28.921875 27.101562 29.382812 27.089844 29.84375 C 27.078125 30.304688 27.050781 30.765625 27.011719 31.226562 C 26.96875 31.6875 26.914062 32.144531 26.84375 32.601562 C 26.773438 33.058594 26.6875 33.511719 26.589844 33.960938 C 26.492188 34.414062 26.378906 34.859375 26.25 35.304688 C 26.121094 35.746094 25.980469 36.1875 25.824219 36.621094 C 25.765625 36.761719 25.683594 36.886719 25.574219 36.996094 C 25.464844 37.105469 25.339844 37.1875 25.199219 37.246094 C 25.058594 37.308594 24.910156 37.339844 24.757812 37.339844 C 24.605469 37.34375 24.457031 37.316406 24.316406 37.261719 L 22.148438 36.351562 C 22 36.292969 21.867188 36.210938 21.753906 36.101562 C 21.636719 35.988281 21.546875 35.863281 21.484375 35.714844 C 21.421875 35.570312 21.390625 35.414062 21.390625 35.257812 C 21.390625 35.097656 21.421875 34.945312 21.484375 34.796875 C 21.714844 34.121094 21.902344 33.433594 22.042969 32.734375 C 22.1875 32.035156 22.289062 31.328125 22.34375 30.617188 C 22.398438 29.90625 22.410156 29.195312 22.375 28.480469 C 22.34375 27.769531 22.261719 27.058594 22.140625 26.355469 C 22.015625 25.652344 21.851562 24.960938 21.640625 24.277344 C 21.429688 23.597656 21.175781 22.929688 20.882812 22.28125 C 20.589844 21.628906 20.257812 21 19.882812 20.390625 C 19.511719 19.78125 19.101562 19.199219 18.652344 18.640625 C 18.207031 18.085938 17.726562 17.558594 17.214844 17.0625 C 16.703125 16.566406 16.160156 16.101562 15.589844 15.671875 C 15.019531 15.246094 14.421875 14.851562 13.804688 14.5 C 13.183594 14.144531 12.542969 13.832031 11.882812 13.558594 C 11.222656 13.285156 10.550781 13.054688 9.863281 12.867188 C 9.171875 12.675781 8.476562 12.53125 7.769531 12.429688 C 7.0625 12.332031 6.351562 12.273438 5.636719 12.261719 C 4.925781 12.25 4.214844 12.285156 3.503906 12.363281 C 3.347656 12.390625 3.191406 12.386719 3.035156 12.351562 C 2.878906 12.316406 2.738281 12.25 2.609375 12.160156 C 2.480469 12.066406 2.371094 11.949219 2.289062 11.816406 C 2.207031 11.679688 2.15625 11.53125 2.132812 11.375 Z M 1.714844 9.058594 "/><g style="fill:#fbf9f6;fill-opacity:1;"><g transform="translate(3.093487, 10.817815)"><path style="stroke:none" d="M 0.578125 -0.828125 L 0.421875 -0.34375 C 0.390625 -0.269531 0.375 -0.210938 0.375 -0.171875 C 0.382812 -0.109375 0.414062 -0.0625 0.46875 -0.03125 L 0.0625 0 C 0.0703125 0 0.09375 -0.0195312 0.125 -0.0625 C 0.164062 -0.113281 0.207031 -0.195312 0.25 -0.3125 L 0.890625 -2.171875 L 1.78125 -0.40625 C 1.820312 -0.300781 1.863281 -0.226562 1.90625 -0.1875 C 1.957031 -0.15625 1.992188 -0.140625 2.015625 -0.140625 L 1.53125 -0.109375 C 1.582031 -0.128906 1.609375 -0.164062 1.609375 -0.21875 C 1.597656 -0.257812 1.578125 -0.316406 1.546875 -0.390625 L 1.296875 -0.875 Z M 1.234375 -1 L 0.875 -1.75 L 0.609375 -0.953125 Z M 1.234375 -1 "/></g></g><g style="fill:#fbf9f6;fill-opacity:1;"><g transform="translate(5.989711, 10.67856)"><path style="stroke:none" d="M 2.3125 -1.796875 C 2.28125 -1.796875 2.25 -1.773438 2.21875 -1.734375 C 2.195312 -1.703125 2.179688 -1.640625 2.171875 -1.546875 L 2 0.265625 L 0.671875 -1.625 L 0.546875 -0.21875 C 0.535156 -0.125 0.539062 -0.0546875 0.5625 -0.015625 C 0.59375 0.0234375 0.625 0.0507812 0.65625 0.0625 L 0.25 0.03125 C 0.28125 0.0195312 0.3125 0 0.34375 -0.03125 C 0.375 -0.0703125 0.394531 -0.140625 0.40625 -0.234375 L 0.546875 -1.6875 C 0.546875 -1.757812 0.523438 -1.820312 0.484375 -1.875 C 0.441406 -1.9375 0.390625 -1.972656 0.328125 -1.984375 L 0.6875 -1.953125 L 1.90625 -0.234375 L 2.03125 -1.546875 C 2.039062 -1.703125 2 -1.796875 1.90625 -1.828125 Z M 2.3125 -1.796875 "/></g></g><g style="fill:#fbf9f6;fill-opacity:1;"><g transform="translate(9.189322, 11.070331)"><path style="stroke:none" d="M 1.546875 0.234375 C 1.347656 0.304688 1.097656 0.300781 0.796875 0.21875 L 0.234375 0.0625 C 0.234375 0.0703125 0.242188 0.0664062 0.265625 0.046875 C 0.296875 0.0351562 0.328125 0.015625 0.359375 -0.015625 C 0.390625 -0.0546875 0.414062 -0.117188 0.4375 -0.203125 L 0.8125 -1.59375 C 0.832031 -1.664062 0.835938 -1.722656 0.828125 -1.765625 C 0.816406 -1.816406 0.800781 -1.847656 0.78125 -1.859375 C 0.769531 -1.878906 0.765625 -1.882812 0.765625 -1.875 L 1.328125 -1.71875 C 1.617188 -1.632812 1.832031 -1.53125 1.96875 -1.40625 C 2.09375 -1.28125 2.175781 -1.132812 2.21875 -0.96875 C 2.257812 -0.800781 2.253906 -0.632812 2.203125 -0.46875 C 2.148438 -0.269531 2.066406 -0.113281 1.953125 0 C 1.847656 0.125 1.710938 0.203125 1.546875 0.234375 Z M 1.859375 -1.296875 C 1.796875 -1.378906 1.71875 -1.445312 1.625 -1.5 C 1.539062 -1.550781 1.429688 -1.59375 1.296875 -1.625 L 1.078125 -1.6875 L 0.609375 0.03125 L 0.828125 0.09375 C 0.984375 0.132812 1.113281 0.15625 1.21875 0.15625 C 1.320312 0.15625 1.421875 0.144531 1.515625 0.125 C 1.617188 0.0703125 1.710938 -0.00390625 1.796875 -0.109375 C 1.878906 -0.210938 1.941406 -0.34375 1.984375 -0.5 C 2.023438 -0.65625 2.035156 -0.800781 2.015625 -0.9375 C 1.992188 -1.082031 1.941406 -1.203125 1.859375 -1.296875 Z M 1.859375 -1.296875 "/></g></g><g style="fill:#fbf9f6;fill-opacity:1;"><g transform="translate(12.128032, 11.954754)"><path style="stroke:none" d="M 1.1875 -0.578125 C 1.269531 -0.546875 1.347656 -0.535156 1.421875 -0.546875 C 1.492188 -0.554688 1.5625 -0.585938 1.625 -0.640625 C 1.6875 -0.691406 1.734375 -0.75 1.765625 -0.8125 C 1.796875 -0.882812 1.8125 -0.957031 1.8125 -1.03125 C 1.8125 -1.101562 1.789062 -1.171875 1.75 -1.234375 C 1.707031 -1.296875 1.640625 -1.347656 1.546875 -1.390625 L 1.328125 -1.484375 L 0.65625 0 C 0.625 0.0703125 0.601562 0.128906 0.59375 0.171875 C 0.59375 0.210938 0.601562 0.242188 0.625 0.265625 C 0.644531 0.285156 0.65625 0.296875 0.65625 0.296875 L 0.234375 0.109375 C 0.234375 0.109375 0.242188 0.101562 0.265625 0.09375 C 0.285156 0.09375 0.3125 0.078125 0.34375 0.046875 C 0.382812 0.0234375 0.421875 -0.0195312 0.453125 -0.09375 L 1.046875 -1.421875 C 1.085938 -1.503906 1.101562 -1.566406 1.09375 -1.609375 C 1.09375 -1.660156 1.085938 -1.695312 1.078125 -1.71875 C 1.066406 -1.738281 1.0625 -1.742188 1.0625 -1.734375 L 1.578125 -1.5 C 1.722656 -1.4375 1.828125 -1.363281 1.890625 -1.28125 C 1.960938 -1.195312 2.003906 -1.109375 2.015625 -1.015625 C 2.023438 -0.929688 2.007812 -0.847656 1.96875 -0.765625 C 1.9375 -0.679688 1.882812 -0.613281 1.8125 -0.5625 C 1.75 -0.519531 1.675781 -0.484375 1.59375 -0.453125 C 1.507812 -0.429688 1.421875 -0.429688 1.328125 -0.453125 L 1.28125 -0.453125 L 1.484375 0.359375 C 1.515625 0.453125 1.539062 0.523438 1.5625 0.578125 C 1.582031 0.628906 1.597656 0.664062 1.609375 0.6875 C 1.628906 0.71875 1.644531 0.734375 1.65625 0.734375 L 1.34375 0.59375 L 1.015625 -0.65625 Z M 1.1875 -0.578125 "/></g></g><g style="fill:#fbf9f6;fill-opacity:1;"><g transform="translate(14.578414, 13.129007)"><path style="stroke:none" d="M 0.21875 0.125 C 0.207031 0.132812 0.210938 0.140625 0.234375 0.140625 C 0.265625 0.140625 0.300781 0.125 0.34375 0.09375 C 0.382812 0.0703125 0.425781 0.0234375 0.46875 -0.046875 L 1.234375 -1.265625 C 1.273438 -1.335938 1.296875 -1.394531 1.296875 -1.4375 C 1.304688 -1.488281 1.304688 -1.523438 1.296875 -1.546875 C 1.296875 -1.578125 1.289062 -1.585938 1.28125 -1.578125 L 2.171875 -1 L 2.03125 -0.765625 C 2.070312 -0.878906 2.015625 -0.984375 1.859375 -1.078125 L 1.515625 -1.296875 L 1.0625 -0.59375 L 1.484375 -0.328125 C 1.523438 -0.304688 1.5625 -0.289062 1.59375 -0.28125 C 1.625 -0.28125 1.644531 -0.28125 1.65625 -0.28125 C 1.675781 -0.289062 1.6875 -0.296875 1.6875 -0.296875 L 1.546875 -0.046875 C 1.546875 -0.046875 1.539062 -0.0546875 1.53125 -0.078125 C 1.53125 -0.109375 1.519531 -0.132812 1.5 -0.15625 C 1.488281 -0.1875 1.460938 -0.210938 1.421875 -0.234375 L 1 -0.5 L 0.5625 0.203125 L 0.953125 0.453125 C 1.023438 0.492188 1.097656 0.519531 1.171875 0.53125 C 1.242188 0.539062 1.304688 0.523438 1.359375 0.484375 L 1.15625 0.71875 Z M 0.21875 0.125 "/></g></g><g style="fill:#fbf9f6;fill-opacity:1;"><g transform="translate(16.624553, 14.466248)"><path style="stroke:none" d="M 0.984375 -0.1875 L 0.53125 0.046875 C 0.457031 0.078125 0.410156 0.109375 0.390625 0.140625 C 0.347656 0.191406 0.335938 0.242188 0.359375 0.296875 L 0.046875 0.046875 C 0.0546875 0.046875 0.0859375 0.0390625 0.140625 0.03125 C 0.203125 0.03125 0.285156 0.00390625 0.390625 -0.046875 L 2.140625 -0.9375 L 1.5625 0.9375 C 1.519531 1.050781 1.5 1.132812 1.5 1.1875 C 1.507812 1.25 1.519531 1.285156 1.53125 1.296875 L 1.171875 0.984375 C 1.222656 1.003906 1.269531 1 1.3125 0.96875 C 1.332031 0.9375 1.351562 0.878906 1.375 0.796875 L 1.53125 0.28125 Z M 1.578125 0.15625 L 1.84375 -0.640625 L 1.109375 -0.25 Z M 1.578125 0.15625 "/></g></g><g style="fill:#fbf9f6;fill-opacity:1;"><g transform="translate(18.794587, 16.431434)"><path style="stroke:none" d=""/></g></g><g style="fill:#fbf9f6;fill-opacity:1;"><g transform="translate(19.908423, 17.662344)"><path style="stroke:none" d="M 1.25 1.59375 C 1.144531 1.59375 1.070312 1.5625 1.03125 1.5 C 1 1.457031 0.984375 1.382812 0.984375 1.28125 C 0.984375 1.1875 0.984375 1.0625 0.984375 0.90625 C 0.703125 0.863281 0.503906 0.765625 0.390625 0.609375 C 0.285156 0.460938 0.242188 0.320312 0.265625 0.1875 C 0.285156 0.0625 0.359375 -0.046875 0.484375 -0.140625 C 0.585938 -0.210938 0.691406 -0.242188 0.796875 -0.234375 C 0.910156 -0.222656 1.046875 -0.1875 1.203125 -0.125 C 1.273438 -0.363281 1.375 -0.53125 1.5 -0.625 C 1.570312 -0.675781 1.648438 -0.707031 1.734375 -0.71875 C 1.828125 -0.726562 1.910156 -0.710938 1.984375 -0.671875 C 2.066406 -0.628906 2.128906 -0.570312 2.171875 -0.5 C 2.210938 -0.4375 2.238281 -0.367188 2.25 -0.296875 C 2.269531 -0.222656 2.265625 -0.148438 2.234375 -0.078125 C 2.210938 -0.00390625 2.171875 0.0507812 2.109375 0.09375 C 2.015625 0.15625 1.90625 0.175781 1.78125 0.15625 C 1.664062 0.144531 1.53125 0.101562 1.375 0.03125 C 1.289062 0.3125 1.234375 0.570312 1.203125 0.8125 C 1.347656 0.8125 1.472656 0.800781 1.578125 0.78125 C 1.679688 0.757812 1.765625 0.722656 1.828125 0.671875 C 1.890625 0.628906 1.921875 0.582031 1.921875 0.53125 L 2.140625 0.828125 C 2.085938 0.816406 1.953125 0.832031 1.734375 0.875 C 1.585938 0.925781 1.410156 0.945312 1.203125 0.9375 C 1.191406 0.945312 1.1875 0.96875 1.1875 1 C 1.1875 1.125 1.1875 1.226562 1.1875 1.3125 C 1.195312 1.40625 1.21875 1.476562 1.25 1.53125 C 1.257812 1.539062 1.289062 1.554688 1.34375 1.578125 C 1.3125 1.585938 1.28125 1.59375 1.25 1.59375 Z M 2.078125 -0.484375 C 2.023438 -0.554688 1.957031 -0.59375 1.875 -0.59375 C 1.800781 -0.59375 1.734375 -0.570312 1.671875 -0.53125 C 1.617188 -0.488281 1.566406 -0.421875 1.515625 -0.328125 C 1.460938 -0.242188 1.414062 -0.148438 1.375 -0.046875 C 1.519531 0.00390625 1.632812 0.03125 1.71875 0.03125 C 1.8125 0.03125 1.898438 0.00390625 1.984375 -0.046875 C 2.066406 -0.109375 2.113281 -0.175781 2.125 -0.25 C 2.144531 -0.332031 2.128906 -0.410156 2.078125 -0.484375 Z M 1.171875 -0.03125 C 1.066406 -0.0703125 0.972656 -0.09375 0.890625 -0.09375 C 0.804688 -0.09375 0.726562 -0.0664062 0.65625 -0.015625 C 0.59375 0.0234375 0.539062 0.078125 0.5 0.140625 C 0.46875 0.203125 0.457031 0.273438 0.46875 0.359375 C 0.476562 0.441406 0.507812 0.519531 0.5625 0.59375 C 0.601562 0.65625 0.65625 0.703125 0.71875 0.734375 C 0.78125 0.765625 0.875 0.785156 1 0.796875 C 1.007812 0.660156 1.023438 0.519531 1.046875 0.375 C 1.078125 0.226562 1.117188 0.09375 1.171875 -0.03125 Z M 1.171875 -0.03125 "/></g></g><g style="fill:#fbf9f6;fill-opacity:1;"><g transform="translate(21.580076, 20.187337)"><path style="stroke:none" d=""/></g></g><g style="fill:#fbf9f6;fill-opacity:1;"><g transform="translate(22.350112, 21.659964)"><path style="stroke:none" d="M 0.953125 0.296875 L 0.453125 0.296875 C 0.367188 0.285156 0.304688 0.289062 0.265625 0.3125 C 0.210938 0.332031 0.179688 0.375 0.171875 0.4375 L 0.015625 0.0625 C 0.0234375 0.0703125 0.0546875 0.0859375 0.109375 0.109375 C 0.160156 0.128906 0.25 0.140625 0.375 0.140625 L 2.34375 0.203125 L 0.90625 1.578125 C 0.820312 1.648438 0.769531 1.710938 0.75 1.765625 C 0.726562 1.816406 0.71875 1.851562 0.71875 1.875 L 0.546875 1.421875 C 0.585938 1.460938 0.632812 1.472656 0.6875 1.453125 C 0.71875 1.441406 0.765625 1.410156 0.828125 1.359375 L 1.21875 0.96875 Z M 1.3125 0.875 L 1.9375 0.3125 L 1.078125 0.296875 Z M 1.3125 0.875 "/></g></g><g style="fill:#fbf9f6;fill-opacity:1;"><g transform="translate(23.322359, 24.406806)"><path style="stroke:none" d="M 1.78125 -0.03125 C 1.851562 -0.0507812 1.90625 -0.0703125 1.9375 -0.09375 C 1.976562 -0.125 2.003906 -0.148438 2.015625 -0.171875 C 2.035156 -0.191406 2.039062 -0.203125 2.03125 -0.203125 L 2.125 0.25 C 2.132812 0.25 2.128906 0.238281 2.109375 0.21875 C 2.085938 0.195312 2.054688 0.179688 2.015625 0.171875 C 1.972656 0.160156 1.914062 0.164062 1.84375 0.1875 L 0.265625 0.546875 L 0.359375 1 C 0.378906 1.09375 0.410156 1.164062 0.453125 1.21875 C 0.503906 1.28125 0.5625 1.320312 0.625 1.34375 L 0.3125 1.34375 L 0.0625 0.25 C 0.0507812 0.25 0.0507812 0.253906 0.0625 0.265625 C 0.0820312 0.285156 0.117188 0.300781 0.171875 0.3125 C 0.222656 0.320312 0.289062 0.316406 0.375 0.296875 Z M 1.78125 -0.03125 "/></g></g><g style="fill:#fbf9f6;fill-opacity:1;"><g transform="translate(23.802601, 26.747445)"><path style="stroke:none" d="M 0.03125 0.25 C 0.0195312 0.25 0.0195312 0.257812 0.03125 0.28125 C 0.0507812 0.300781 0.0820312 0.316406 0.125 0.328125 C 0.175781 0.347656 0.242188 0.351562 0.328125 0.34375 L 1.75 0.203125 C 1.832031 0.203125 1.894531 0.1875 1.9375 0.15625 C 1.976562 0.132812 2.003906 0.113281 2.015625 0.09375 C 2.035156 0.0703125 2.039062 0.0625 2.03125 0.0625 L 2.125 1.125 L 1.84375 1.140625 C 1.957031 1.097656 2.003906 0.988281 1.984375 0.8125 L 1.953125 0.40625 L 1.125 0.484375 L 1.171875 0.984375 C 1.171875 1.023438 1.179688 1.054688 1.203125 1.078125 C 1.222656 1.109375 1.238281 1.128906 1.25 1.140625 C 1.269531 1.160156 1.28125 1.171875 1.28125 1.171875 L 1 1.203125 C 1 1.203125 1.003906 1.191406 1.015625 1.171875 C 1.035156 1.148438 1.046875 1.125 1.046875 1.09375 C 1.054688 1.070312 1.0625 1.039062 1.0625 1 L 1.015625 0.5 L 0.1875 0.578125 L 0.21875 1.03125 C 0.226562 1.113281 0.25 1.1875 0.28125 1.25 C 0.320312 1.320312 0.378906 1.363281 0.453125 1.375 L 0.125 1.359375 Z M 0.03125 0.25 "/></g></g><g style="fill:#fbf9f6;fill-opacity:1;"><g transform="translate(23.992091, 29.183011)"><path style="stroke:none" d="M -0.078125 1.5 C -0.0664062 1.539062 -0.0507812 1.5625 -0.03125 1.5625 C 0.0078125 1.5625 0.0507812 1.546875 0.09375 1.515625 C 0.132812 1.492188 0.160156 1.484375 0.171875 1.484375 L 0.828125 1.09375 L 0.234375 0.609375 C 0.191406 0.578125 0.15625 0.550781 0.125 0.53125 C 0.09375 0.507812 0.0664062 0.5 0.046875 0.5 C 0.00390625 0.5 -0.0195312 0.53125 -0.03125 0.59375 L -0.015625 0.15625 C -0.015625 0.15625 -0.0078125 0.164062 0 0.1875 C 0.0078125 0.207031 0.0351562 0.242188 0.078125 0.296875 C 0.117188 0.347656 0.179688 0.40625 0.265625 0.46875 L 0.953125 1.03125 L 1.703125 0.609375 C 1.796875 0.546875 1.863281 0.492188 1.90625 0.453125 C 1.945312 0.410156 1.972656 0.378906 1.984375 0.359375 C 2.003906 0.335938 2.007812 0.320312 2 0.3125 L 1.984375 0.796875 C 1.984375 0.765625 1.96875 0.75 1.9375 0.75 C 1.90625 0.75 1.859375 0.769531 1.796875 0.8125 L 1.125 1.1875 L 1.671875 1.640625 C 1.753906 1.703125 1.816406 1.734375 1.859375 1.734375 C 1.910156 1.734375 1.9375 1.703125 1.9375 1.640625 L 1.921875 2.078125 C 1.929688 2.085938 1.925781 2.078125 1.90625 2.046875 C 1.894531 2.023438 1.875 1.992188 1.84375 1.953125 C 1.8125 1.910156 1.757812 1.867188 1.6875 1.828125 L 1.015625 1.25 L 0.265625 1.6875 C 0.148438 1.75 0.0664062 1.800781 0.015625 1.84375 C -0.0234375 1.882812 -0.0507812 1.921875 -0.0625 1.953125 C -0.0820312 1.984375 -0.09375 2 -0.09375 2 Z M -0.078125 1.5 "/></g></g><g style="fill:#fbf9f6;fill-opacity:1;"><g transform="translate(23.744047, 32.177889)"><path style="stroke:none" d="M -0.046875 0.25 C -0.0546875 0.25 -0.0546875 0.257812 -0.046875 0.28125 C -0.0351562 0.300781 -0.0078125 0.328125 0.03125 0.359375 C 0.0703125 0.390625 0.128906 0.410156 0.203125 0.421875 L 1.65625 0.6875 C 1.726562 0.695312 1.785156 0.695312 1.828125 0.6875 C 1.867188 0.675781 1.898438 0.660156 1.921875 0.640625 C 1.941406 0.617188 1.945312 0.609375 1.9375 0.609375 L 1.859375 1.0625 C 1.867188 1.0625 1.867188 1.046875 1.859375 1.015625 C 1.847656 0.992188 1.820312 0.96875 1.78125 0.9375 C 1.738281 0.914062 1.679688 0.898438 1.609375 0.890625 L 0.15625 0.625 C 0.0820312 0.613281 0.0234375 0.609375 -0.015625 0.609375 C -0.0546875 0.617188 -0.0820312 0.632812 -0.09375 0.65625 C -0.113281 0.6875 -0.125 0.703125 -0.125 0.703125 Z M -0.046875 0.25 "/></g></g><g style="fill:#fbf9f6;fill-opacity:1;"><g transform="translate(23.382819, 33.973083)"><path style="stroke:none" d="M -0.265625 0.734375 C -0.234375 0.628906 -0.1875 0.535156 -0.125 0.453125 C -0.0703125 0.378906 -0.0078125 0.3125 0.0625 0.25 L 0.40625 0.359375 C 0.25 0.367188 0.125 0.410156 0.03125 0.484375 C -0.0625 0.566406 -0.125 0.664062 -0.15625 0.78125 C -0.1875 0.882812 -0.175781 0.988281 -0.125 1.09375 C -0.0703125 1.195312 0.00390625 1.265625 0.109375 1.296875 C 0.179688 1.316406 0.242188 1.316406 0.296875 1.296875 C 0.359375 1.285156 0.421875 1.253906 0.484375 1.203125 C 0.554688 1.148438 0.632812 1.070312 0.71875 0.96875 C 0.84375 0.832031 0.957031 0.738281 1.0625 0.6875 C 1.164062 0.632812 1.28125 0.628906 1.40625 0.671875 C 1.5 0.691406 1.578125 0.738281 1.640625 0.8125 C 1.703125 0.894531 1.738281 0.976562 1.75 1.0625 C 1.769531 1.15625 1.765625 1.253906 1.734375 1.359375 C 1.710938 1.429688 1.675781 1.507812 1.625 1.59375 C 1.570312 1.675781 1.519531 1.742188 1.46875 1.796875 L 1.15625 1.703125 C 1.269531 1.691406 1.367188 1.644531 1.453125 1.5625 C 1.546875 1.488281 1.601562 1.40625 1.625 1.3125 C 1.65625 1.207031 1.644531 1.113281 1.59375 1.03125 C 1.539062 0.945312 1.472656 0.890625 1.390625 0.859375 C 1.316406 0.835938 1.25 0.835938 1.1875 0.859375 C 1.125 0.878906 1.066406 0.910156 1.015625 0.953125 C 0.972656 1.003906 0.910156 1.078125 0.828125 1.171875 C 0.734375 1.265625 0.65625 1.335938 0.59375 1.390625 C 0.53125 1.441406 0.457031 1.476562 0.375 1.5 C 0.289062 1.519531 0.203125 1.515625 0.109375 1.484375 C -0.00390625 1.453125 -0.09375 1.398438 -0.15625 1.328125 C -0.21875 1.253906 -0.257812 1.160156 -0.28125 1.046875 C -0.300781 0.941406 -0.296875 0.835938 -0.265625 0.734375 Z M -0.265625 0.734375 "/></g></g></g></g><g transform="matrix(1,0,0,1,9,34)"><g clip-path="url(#af959ad5ca)"><g style="fill:#fbf9f6;fill-opacity:1;"><g transform="translate(0.496824, 8.938575)"><path style="stroke:none" d="M 4.75 -4.703125 C 5.0625 -4.660156 5.34375 -4.566406 5.59375 -4.421875 C 5.84375 -4.285156 6.039062 -4.113281 6.1875 -3.90625 C 6.332031 -3.695312 6.40625 -3.46875 6.40625 -3.21875 C 6.40625 -2.976562 6.332031 -2.75 6.1875 -2.53125 C 6.050781 -2.320312 5.863281 -2.148438 5.625 -2.015625 L 4.953125 -1.625 C 4.953125 -1.269531 4.828125 -0.945312 4.578125 -0.65625 C 4.328125 -0.375 3.992188 -0.164062 3.578125 -0.03125 C 3.566406 -0.03125 3.566406 -0.03125 3.578125 -0.03125 C 3.316406 0.0507812 3.039062 0.09375 2.75 0.09375 L 2.6875 0.109375 C 2.675781 0.109375 2.664062 0.109375 2.65625 0.109375 C 2.632812 0.109375 2.617188 0.101562 2.609375 0.09375 L 2.5 0.09375 C 2.164062 0.09375 1.859375 0.0078125 1.578125 -0.15625 C 1.296875 -0.320312 1.070312 -0.546875 0.90625 -0.828125 C 0.738281 -1.109375 0.65625 -1.421875 0.65625 -1.765625 C 0.65625 -2.066406 0.71875 -2.34375 0.84375 -2.59375 C 0.96875 -2.84375 1.140625 -3.054688 1.359375 -3.234375 C 1.585938 -3.410156 1.835938 -3.53125 2.109375 -3.59375 C 1.835938 -3.65625 1.585938 -3.769531 1.359375 -3.9375 C 1.140625 -4.113281 0.96875 -4.328125 0.84375 -4.578125 C 0.71875 -4.835938 0.65625 -5.117188 0.65625 -5.421875 C 0.65625 -5.765625 0.738281 -6.078125 0.90625 -6.359375 C 1.070312 -6.640625 1.296875 -6.863281 1.578125 -7.03125 C 1.859375 -7.195312 2.164062 -7.28125 2.5 -7.28125 L 2.609375 -7.28125 C 2.609375 -7.28125 2.613281 -7.28125 2.625 -7.28125 C 2.664062 -7.28125 2.695312 -7.28125 2.71875 -7.28125 C 3.019531 -7.28125 3.304688 -7.238281 3.578125 -7.15625 C 3.992188 -7.019531 4.328125 -6.804688 4.578125 -6.515625 C 4.828125 -6.234375 4.953125 -5.914062 4.953125 -5.5625 C 4.953125 -5.53125 4.9375 -5.515625 4.90625 -5.515625 L 4.671875 -5.515625 C 4.648438 -5.515625 4.640625 -5.519531 4.640625 -5.53125 C 4.628906 -5.539062 4.625 -5.550781 4.625 -5.5625 C 4.65625 -5.726562 4.648438 -5.90625 4.609375 -6.09375 C 4.566406 -6.28125 4.460938 -6.457031 4.296875 -6.625 C 4.140625 -6.800781 3.890625 -6.953125 3.546875 -7.078125 C 3.285156 -7.160156 3.007812 -7.203125 2.71875 -7.203125 C 2.695312 -7.203125 2.664062 -7.203125 2.625 -7.203125 C 2.625 -7.203125 2.617188 -7.203125 2.609375 -7.203125 C 2.316406 -7.203125 2.046875 -7.117188 1.796875 -6.953125 C 1.546875 -6.796875 1.347656 -6.582031 1.203125 -6.3125 C 1.054688 -6.039062 0.984375 -5.742188 0.984375 -5.421875 C 0.984375 -5.085938 1.054688 -4.785156 1.203125 -4.515625 C 1.347656 -4.253906 1.539062 -4.039062 1.78125 -3.875 C 2.03125 -3.71875 2.304688 -3.640625 2.609375 -3.640625 C 2.679688 -3.847656 2.8125 -4.035156 3 -4.203125 C 3.195312 -4.367188 3.429688 -4.5 3.703125 -4.59375 C 3.941406 -4.664062 4.191406 -4.707031 4.453125 -4.71875 C 4.523438 -4.71875 4.59375 -4.710938 4.65625 -4.703125 C 4.675781 -4.703125 4.707031 -4.703125 4.75 -4.703125 Z M 3.546875 -0.109375 C 3.847656 -0.210938 4.078125 -0.335938 4.234375 -0.484375 C 4.390625 -0.640625 4.492188 -0.796875 4.546875 -0.953125 C 4.609375 -1.117188 4.640625 -1.28125 4.640625 -1.4375 L 3.4375 -0.734375 C 3.113281 -0.546875 2.898438 -0.296875 2.796875 0.015625 C 3.066406 0.00390625 3.316406 -0.0351562 3.546875 -0.109375 Z M 5.5 -2.28125 C 5.707031 -2.40625 5.867188 -2.554688 5.984375 -2.734375 C 6.109375 -2.921875 6.171875 -3.117188 6.171875 -3.328125 C 6.171875 -3.535156 6.109375 -3.726562 5.984375 -3.90625 C 5.859375 -4.09375 5.6875 -4.25 5.46875 -4.375 C 5.257812 -4.5 5.019531 -4.578125 4.75 -4.609375 C 4.738281 -4.609375 4.734375 -4.609375 4.734375 -4.609375 C 4.691406 -4.617188 4.660156 -4.625 4.640625 -4.625 C 4.585938 -4.625 4.523438 -4.625 4.453125 -4.625 C 4.203125 -4.625 3.96875 -4.585938 3.75 -4.515625 C 3.738281 -4.515625 3.734375 -4.515625 3.734375 -4.515625 C 3.722656 -4.515625 3.722656 -4.515625 3.734375 -4.515625 C 3.441406 -4.410156 3.226562 -4.28125 3.09375 -4.125 C 2.957031 -3.976562 2.867188 -3.820312 2.828125 -3.65625 C 2.796875 -3.5 2.789062 -3.351562 2.8125 -3.21875 C 2.8125 -3.207031 2.8125 -3.191406 2.8125 -3.171875 C 2.800781 -3.171875 2.789062 -3.171875 2.78125 -3.171875 L 2.5625 -3.171875 C 2.539062 -3.171875 2.53125 -3.179688 2.53125 -3.203125 C 2.53125 -3.316406 2.539062 -3.429688 2.5625 -3.546875 C 2.269531 -3.535156 2.003906 -3.445312 1.765625 -3.28125 C 1.523438 -3.125 1.332031 -2.910156 1.1875 -2.640625 C 1.050781 -2.378906 0.984375 -2.085938 0.984375 -1.765625 C 0.984375 -1.453125 1.050781 -1.160156 1.1875 -0.890625 C 1.332031 -0.628906 1.519531 -0.414062 1.75 -0.25 C 1.988281 -0.09375 2.253906 -0.00390625 2.546875 0.015625 C 2.617188 -0.410156 2.875 -0.75 3.3125 -1 Z M 5.5 -2.28125 "/></g></g></g></g></g></svg>