<svg xmlns="http://www.w3.org/2000/svg" xmlns:xlink="http://www.w3.org/1999/xlink" width="500" zoomAndPan="magnify" viewBox="0 0 375 374.999991" height="500" preserveAspectRatio="xMidYMid meet" version="1.2"><defs><clipPath id="7501621983"><path d="M 5.3125 64.910156 L 297.6875 64.910156 L 297.6875 357.285156 L 5.3125 357.285156 Z M 5.3125 64.910156 "/></clipPath><clipPath id="75ea20a2af"><path d="M 151.5 64.910156 C 70.765625 64.910156 5.3125 130.359375 5.3125 211.097656 C 5.3125 291.832031 70.765625 357.285156 151.5 357.285156 C 232.238281 357.285156 297.6875 291.832031 297.6875 211.097656 C 297.6875 130.359375 232.238281 64.910156 151.5 64.910156 Z M 151.5 64.910156 "/></clipPath><clipPath id="019f868598"><rect x="0" width="90" y="0" height="211"/></clipPath><clipPath id="fe8c8cede7"><path d="M 123 162 L 212 162 L 212 372.398438 L 123 372.398438 Z M 123 162 "/></clipPath><clipPath id="ca5fa97e96"><rect x="0" width="89" y="0" height="211"/></clipPath><clipPath id="776b2f8c60"><rect x="0" width="370" y="0" height="373"/></clipPath></defs><g id="fccf4dc438"><g transform="matrix(1,0,0,1,4,2)"><g clip-path="url(#776b2f8c60)"><g clip-rule="nonzero" clip-path="url(#7501621983)"><g clip-rule="nonzero" clip-path="url(#75ea20a2af)"><path style="fill:none;stroke-width:1.182968;stroke-linecap:butt;stroke-linejoin:miter;stroke:#fbf9f6;stroke-opacity:1;stroke-miterlimit:4;" d="M 115.288631 -0.000922523 C 51.617846 -0.000922523 -0.00145266 51.615296 -0.00145266 115.289161 C -0.00145266 178.959946 51.617846 230.579245 115.288631 230.579245 C 178.962496 230.579245 230.578714 178.959946 230.578714 115.289161 C 230.578714 51.615296 178.962496 -0.000922523 115.288631 -0.000922523 Z M 115.288631 -0.000922523 " transform="matrix(1.267997,0,0,1.267997,5.314342,64.911326)"/></g></g><g transform="matrix(1,0,0,1,87,73)"><g id="0b1d907f5c" clip-path="url(#019f868598)"><g style="fill:#fbf9f6;fill-opacity:1;"><g transform="translate(1.077682, 144.815282)"><path style="stroke:none" d="M 2.515625 0.78125 C 1.992188 0.78125 1.734375 0.519531 1.734375 0 C 1.734375 -0.519531 1.992188 -0.78125 2.515625 -0.78125 C 4.085938 -0.78125 5.132812 -1.566406 5.65625 -3.140625 L 25.296875 -68.046875 L 41.328125 -121.171875 L 43.0625 -127.140625 L 43.21875 -127.296875 C 43.113281 -127.296875 43.113281 -127.347656 43.21875 -127.453125 C 43.21875 -127.453125 43.21875 -127.503906 43.21875 -127.609375 C 43.320312 -127.609375 43.375 -127.609375 43.375 -127.609375 C 43.375 -127.710938 43.375 -127.765625 43.375 -127.765625 C 43.375 -127.765625 43.425781 -127.765625 43.53125 -127.765625 C 43.738281 -127.867188 43.789062 -127.921875 43.6875 -127.921875 C 43.6875 -127.816406 43.6875 -127.816406 43.6875 -127.921875 C 43.789062 -127.921875 43.84375 -127.921875 43.84375 -127.921875 C 43.945312 -127.921875 44 -127.921875 44 -127.921875 C 44.101562 -127.816406 44.15625 -127.816406 44.15625 -127.921875 C 44.050781 -127.921875 44.050781 -127.867188 44.15625 -127.765625 C 44.257812 -127.765625 44.3125 -127.765625 44.3125 -127.765625 C 44.3125 -127.660156 44.3125 -127.660156 44.3125 -127.765625 C 44.3125 -127.765625 44.363281 -127.710938 44.46875 -127.609375 C 44.570312 -127.503906 44.625 -127.453125 44.625 -127.453125 C 44.625 -127.347656 44.625 -127.296875 44.625 -127.296875 L 82.03125 -3.140625 C 82.5625 -1.566406 83.609375 -0.78125 85.171875 -0.78125 C 85.703125 -0.78125 85.96875 -0.519531 85.96875 0 C 85.96875 0.519531 85.703125 0.78125 85.171875 0.78125 L 75.59375 0.78125 C 75.070312 0.78125 74.8125 0.519531 74.8125 0 C 74.8125 -0.519531 75.070312 -0.78125 75.59375 -0.78125 C 76.113281 -0.78125 76.476562 -0.9375 76.6875 -1.25 C 77 -1.675781 77.050781 -2.203125 76.84375 -2.828125 L 70.40625 -24.515625 C 70.300781 -24.617188 70.25 -24.617188 70.25 -24.515625 C 66.789062 -34.679688 61.179688 -43.507812 53.421875 -51 C 45.671875 -58.488281 36.71875 -63.804688 26.5625 -66.953125 L 7.078125 -2.828125 C 6.972656 -2.203125 7.023438 -1.675781 7.234375 -1.25 C 7.546875 -0.9375 7.960938 -0.78125 8.484375 -0.78125 C 9.003906 -0.78125 9.265625 -0.519531 9.265625 0 C 9.265625 0.519531 9.003906 0.78125 8.484375 0.78125 Z M 26.875 -68.359375 C 35.46875 -65.742188 43.21875 -61.632812 50.125 -56.03125 C 57.039062 -50.425781 62.597656 -43.742188 66.796875 -35.984375 L 41.953125 -118.34375 Z M 26.875 -68.359375 "/></g></g></g></g><g clip-rule="nonzero" clip-path="url(#fe8c8cede7)"><g transform="matrix(1,0,0,1,123,162)"><g id="19e2bd9739" clip-path="url(#ca5fa97e96)"><g style="fill:#fbf9f6;fill-opacity:1;"><g transform="translate(0.419737, 145.124448)"><path style="stroke:none" d="M 2.515625 0.78125 C 1.992188 0.78125 1.734375 0.519531 1.734375 0 C 1.734375 -0.519531 1.992188 -0.78125 2.515625 -0.78125 C 4.085938 -0.78125 5.132812 -1.566406 5.65625 -3.140625 L 25.296875 -68.046875 L 41.328125 -121.171875 L 43.0625 -127.140625 L 43.21875 -127.296875 C 43.113281 -127.296875 43.113281 -127.347656 43.21875 -127.453125 C 43.21875 -127.453125 43.21875 -127.503906 43.21875 -127.609375 C 43.320312 -127.609375 43.375 -127.609375 43.375 -127.609375 C 43.375 -127.710938 43.375 -127.765625 43.375 -127.765625 C 43.375 -127.765625 43.425781 -127.765625 43.53125 -127.765625 C 43.738281 -127.867188 43.789062 -127.921875 43.6875 -127.921875 C 43.6875 -127.816406 43.6875 -127.816406 43.6875 -127.921875 C 43.789062 -127.921875 43.84375 -127.921875 43.84375 -127.921875 C 43.945312 -127.921875 44 -127.921875 44 -127.921875 C 44.101562 -127.816406 44.15625 -127.816406 44.15625 -127.921875 C 44.050781 -127.921875 44.050781 -127.867188 44.15625 -127.765625 C 44.257812 -127.765625 44.3125 -127.765625 44.3125 -127.765625 C 44.3125 -127.660156 44.3125 -127.660156 44.3125 -127.765625 C 44.3125 -127.765625 44.363281 -127.710938 44.46875 -127.609375 C 44.570312 -127.503906 44.625 -127.453125 44.625 -127.453125 C 44.625 -127.347656 44.625 -127.296875 44.625 -127.296875 L 82.03125 -3.140625 C 82.5625 -1.566406 83.609375 -0.78125 85.171875 -0.78125 C 85.703125 -0.78125 85.96875 -0.519531 85.96875 0 C 85.96875 0.519531 85.703125 0.78125 85.171875 0.78125 L 75.59375 0.78125 C 75.070312 0.78125 74.8125 0.519531 74.8125 0 C 74.8125 -0.519531 75.070312 -0.78125 75.59375 -0.78125 C 76.113281 -0.78125 76.476562 -0.9375 76.6875 -1.25 C 77 -1.675781 77.050781 -2.203125 76.84375 -2.828125 L 70.40625 -24.515625 C 70.300781 -24.617188 70.25 -24.617188 70.25 -24.515625 C 66.789062 -34.679688 61.179688 -43.507812 53.421875 -51 C 45.671875 -58.488281 36.71875 -63.804688 26.5625 -66.953125 L 7.078125 -2.828125 C 6.972656 -2.203125 7.023438 -1.675781 7.234375 -1.25 C 7.546875 -0.9375 7.960938 -0.78125 8.484375 -0.78125 C 9.003906 -0.78125 9.265625 -0.519531 9.265625 0 C 9.265625 0.519531 9.003906 0.78125 8.484375 0.78125 Z M 26.875 -68.359375 C 35.46875 -65.742188 43.21875 -61.632812 50.125 -56.03125 C 57.039062 -50.425781 62.597656 -43.742188 66.796875 -35.984375 L 41.953125 -118.34375 Z M 26.875 -68.359375 "/></g></g></g></g></g><path style=" stroke:none;fill-rule:nonzero;fill:#1d1d1d;fill-opacity:1;" d="M 128.253906 60.375 C 128.167969 59.816406 128.140625 59.253906 128.164062 58.691406 C 128.1875 58.125 128.261719 57.566406 128.394531 57.019531 C 128.527344 56.46875 128.710938 55.9375 128.945312 55.421875 C 129.179688 54.910156 129.460938 54.421875 129.789062 53.960938 C 130.117188 53.503906 130.484375 53.078125 130.898438 52.691406 C 131.308594 52.300781 131.75 51.957031 132.230469 51.65625 C 132.707031 51.351562 133.207031 51.097656 133.734375 50.894531 C 134.261719 50.6875 134.804688 50.535156 135.359375 50.4375 C 138.773438 50.007812 142.199219 49.691406 145.632812 49.484375 C 149.066406 49.277344 152.503906 49.175781 155.945312 49.1875 C 159.386719 49.199219 162.824219 49.320312 166.257812 49.550781 C 169.691406 49.78125 173.113281 50.121094 176.523438 50.566406 C 179.9375 51.015625 183.332031 51.574219 186.707031 52.238281 C 190.082031 52.902344 193.433594 53.671875 196.761719 54.550781 C 200.089844 55.429688 203.382812 56.414062 206.648438 57.5 C 209.914062 58.589844 213.140625 59.78125 216.328125 61.074219 C 219.515625 62.367188 222.660156 63.761719 225.761719 65.253906 C 228.859375 66.75 231.910156 68.339844 234.90625 70.03125 C 237.90625 71.71875 240.847656 73.5 243.730469 75.375 C 246.617188 77.253906 249.4375 79.21875 252.195312 81.273438 C 254.957031 83.328125 257.648438 85.472656 260.269531 87.699219 C 262.894531 89.925781 265.441406 92.234375 267.917969 94.625 C 270.394531 97.015625 272.792969 99.480469 275.109375 102.023438 C 277.429688 104.566406 279.664062 107.179688 281.816406 109.863281 C 283.96875 112.550781 286.03125 115.300781 288.007812 118.117188 C 289.984375 120.933594 291.871094 123.8125 293.664062 126.746094 C 295.457031 129.683594 297.152344 132.675781 298.757812 135.71875 C 300.359375 138.765625 301.863281 141.859375 303.269531 145 C 304.675781 148.140625 305.980469 151.320312 307.183594 154.546875 C 308.382812 157.769531 309.484375 161.027344 310.476562 164.324219 C 311.472656 167.617188 312.363281 170.9375 313.144531 174.289062 C 313.929688 177.640625 314.605469 181.011719 315.171875 184.40625 C 315.742188 187.800781 316.203125 191.207031 316.550781 194.632812 C 316.902344 198.054688 317.144531 201.484375 317.277344 204.921875 C 317.410156 208.363281 317.433594 211.800781 317.347656 215.242188 C 317.261719 218.679688 317.0625 222.113281 316.757812 225.542969 C 316.453125 228.96875 316.039062 232.382812 315.515625 235.785156 C 314.992188 239.1875 314.359375 242.566406 313.621094 245.925781 C 312.882812 249.289062 312.039062 252.621094 311.089844 255.929688 C 310.136719 259.234375 309.082031 262.507812 307.921875 265.75 C 307.703125 266.269531 307.4375 266.765625 307.121094 267.234375 C 306.804688 267.703125 306.449219 268.136719 306.050781 268.539062 C 305.652344 268.9375 305.21875 269.296875 304.75 269.613281 C 304.28125 269.929688 303.789062 270.199219 303.265625 270.417969 C 302.746094 270.636719 302.210938 270.808594 301.65625 270.925781 C 301.105469 271.039062 300.546875 271.101562 299.980469 271.113281 C 299.414062 271.121094 298.855469 271.074219 298.296875 270.976562 C 297.742188 270.875 297.203125 270.722656 296.675781 270.519531 L 280.527344 263.730469 C 279.976562 263.523438 279.453125 263.261719 278.957031 262.945312 C 278.460938 262.632812 278 262.273438 277.574219 261.867188 C 277.152344 261.457031 276.773438 261.015625 276.4375 260.53125 C 276.105469 260.046875 275.820312 259.535156 275.589844 258.996094 C 275.359375 258.457031 275.183594 257.898438 275.0625 257.320312 C 274.945312 256.746094 274.882812 256.164062 274.882812 255.578125 C 274.878906 254.988281 274.933594 254.40625 275.050781 253.832031 C 275.164062 253.253906 275.335938 252.695312 275.5625 252.152344 C 276.421875 249.640625 277.199219 247.101562 277.898438 244.535156 C 278.597656 241.972656 279.214844 239.390625 279.753906 236.785156 C 280.289062 234.183594 280.742188 231.566406 281.113281 228.9375 C 281.488281 226.304688 281.777344 223.664062 281.984375 221.015625 C 282.1875 218.367188 282.3125 215.714844 282.351562 213.054688 C 282.390625 210.398438 282.347656 207.742188 282.21875 205.089844 C 282.09375 202.433594 281.882812 199.789062 281.589844 197.148438 C 281.296875 194.503906 280.921875 191.875 280.460938 189.257812 C 280.003906 186.640625 279.464844 184.042969 278.84375 181.457031 C 278.21875 178.875 277.519531 176.3125 276.734375 173.773438 C 275.953125 171.234375 275.089844 168.722656 274.152344 166.238281 C 273.210938 163.75 272.191406 161.296875 271.097656 158.875 C 270.003906 156.457031 268.835938 154.070312 267.589844 151.722656 C 266.347656 149.375 265.03125 147.066406 263.640625 144.800781 C 262.25 142.539062 260.792969 140.316406 259.265625 138.144531 C 257.734375 135.96875 256.140625 133.847656 254.480469 131.773438 C 252.816406 129.699219 251.09375 127.679688 249.304688 125.714844 C 247.515625 123.75 245.667969 121.84375 243.757812 119.996094 C 241.847656 118.144531 239.886719 116.359375 237.863281 114.632812 C 235.84375 112.90625 233.769531 111.246094 231.644531 109.648438 C 229.519531 108.054688 227.347656 106.527344 225.128906 105.066406 C 222.90625 103.609375 220.640625 102.222656 218.335938 100.90625 C 216.027344 99.585938 213.679688 98.34375 211.292969 97.175781 C 208.90625 96.003906 206.488281 94.910156 204.03125 93.894531 C 201.578125 92.878906 199.09375 91.9375 196.578125 91.074219 C 194.066406 90.214844 191.527344 89.433594 188.964844 88.730469 C 186.402344 88.027344 183.820312 87.40625 181.21875 86.867188 C 178.617188 86.328125 176 85.871094 173.367188 85.496094 C 170.738281 85.117188 168.097656 84.824219 165.449219 84.617188 C 162.800781 84.40625 160.148438 84.28125 157.492188 84.238281 C 154.835938 84.195312 152.179688 84.234375 149.523438 84.355469 C 146.871094 84.480469 144.222656 84.6875 141.582031 84.976562 C 141 85.082031 140.417969 85.125 139.832031 85.113281 C 139.242188 85.101562 138.664062 85.027344 138.089844 84.898438 C 137.515625 84.769531 136.960938 84.582031 136.425781 84.339844 C 135.890625 84.097656 135.386719 83.804688 134.910156 83.464844 C 134.433594 83.121094 133.992188 82.730469 133.59375 82.300781 C 133.195312 81.867188 132.84375 81.402344 132.539062 80.898438 C 132.234375 80.394531 131.984375 79.867188 131.785156 79.316406 C 131.585938 78.761719 131.445312 78.195312 131.359375 77.613281 Z M 128.253906 60.375 "/><g style="fill:#fbf9f6;fill-opacity:1;"><g transform="translate(138.499035, 73.431309)"><path style="stroke:none" d="M 4.21875 -6.140625 L 3.0625 -2.578125 C 2.875 -2.023438 2.796875 -1.578125 2.828125 -1.234375 C 2.859375 -0.753906 3.09375 -0.421875 3.53125 -0.234375 L 0.421875 -0.03125 C 0.566406 -0.0390625 0.765625 -0.195312 1.015625 -0.5 C 1.273438 -0.8125 1.5625 -1.414062 1.875 -2.3125 L 6.640625 -16.265625 L 13.21875 -3 C 13.59375 -2.238281 13.941406 -1.722656 14.265625 -1.453125 C 14.585938 -1.179688 14.832031 -1.035156 15 -1.015625 L 11.375 -0.78125 C 11.726562 -0.976562 11.890625 -1.257812 11.859375 -1.625 C 11.835938 -1.925781 11.695312 -2.359375 11.4375 -2.921875 L 9.65625 -6.515625 Z M 9.25 -7.390625 L 6.453125 -13.0625 L 4.515625 -7.078125 Z M 9.25 -7.390625 "/></g></g><g style="fill:#fbf9f6;fill-opacity:1;"><g transform="translate(160.08128, 72.393586)"><path style="stroke:none" d="M 17.328125 -13.453125 C 17.128906 -13.429688 16.914062 -13.285156 16.6875 -13.015625 C 16.457031 -12.753906 16.3125 -12.265625 16.25 -11.546875 L 14.921875 2.0625 L 5.046875 -12.015625 L 4.03125 -1.578125 C 3.96875 -0.890625 4.039062 -0.390625 4.25 -0.078125 C 4.46875 0.222656 4.695312 0.410156 4.9375 0.484375 L 1.84375 0.171875 C 2.050781 0.148438 2.273438 0.0078125 2.515625 -0.25 C 2.753906 -0.519531 2.90625 -1.003906 2.96875 -1.703125 L 4.03125 -12.609375 C 4.070312 -13.109375 3.945312 -13.578125 3.65625 -14.015625 C 3.363281 -14.453125 2.972656 -14.742188 2.484375 -14.890625 L 5.1875 -14.625 L 14.25 -1.734375 L 15.21875 -11.65625 C 15.320312 -12.78125 15.003906 -13.476562 14.265625 -13.75 Z M 17.328125 -13.453125 "/></g></g><g style="fill:#fbf9f6;fill-opacity:1;"><g transform="translate(183.924331, 75.313005)"><path style="stroke:none" d="M 11.578125 1.890625 C 10.035156 2.304688 8.160156 2.21875 5.953125 1.625 L 1.796875 0.484375 C 1.785156 0.523438 1.878906 0.507812 2.078125 0.4375 C 2.285156 0.363281 2.5 0.1875 2.71875 -0.09375 C 2.9375 -0.382812 3.128906 -0.84375 3.296875 -1.46875 L 6.125 -11.859375 C 6.269531 -12.410156 6.316406 -12.847656 6.265625 -13.171875 C 6.210938 -13.492188 6.113281 -13.726562 5.96875 -13.875 C 5.832031 -14.019531 5.757812 -14.078125 5.75 -14.046875 L 9.890625 -12.921875 C 12.046875 -12.335938 13.65625 -11.523438 14.71875 -10.484375 C 15.644531 -9.554688 16.269531 -8.476562 16.59375 -7.25 C 16.914062 -6.03125 16.898438 -4.757812 16.546875 -3.4375 C 16.148438 -2 15.519531 -0.835938 14.65625 0.046875 C 13.800781 0.941406 12.773438 1.554688 11.578125 1.890625 Z M 13.84375 -9.6875 C 13.320312 -10.257812 12.734375 -10.734375 12.078125 -11.109375 C 11.429688 -11.484375 10.625 -11.804688 9.65625 -12.078125 L 7.9375 -12.546875 L 4.453125 0.296875 L 6.171875 0.765625 C 7.328125 1.085938 8.300781 1.25 9.09375 1.25 C 9.882812 1.25 10.601562 1.117188 11.25 0.859375 C 12.09375 0.515625 12.816406 -0.0351562 13.421875 -0.796875 C 14.023438 -1.566406 14.484375 -2.53125 14.796875 -3.6875 C 15.128906 -4.914062 15.203125 -6.050781 15.015625 -7.09375 C 14.835938 -8.132812 14.445312 -9 13.84375 -9.6875 Z M 13.84375 -9.6875 "/></g></g><g style="fill:#fbf9f6;fill-opacity:1;"><g transform="translate(205.823159, 81.9036)"><path style="stroke:none" d="M 8.8125 -4.359375 C 9.414062 -4.085938 10.007812 -3.988281 10.59375 -4.0625 C 11.175781 -4.144531 11.6875 -4.363281 12.125 -4.71875 C 12.5625 -5.082031 12.894531 -5.515625 13.125 -6.015625 C 13.351562 -6.546875 13.457031 -7.085938 13.4375 -7.640625 C 13.425781 -8.191406 13.257812 -8.71875 12.9375 -9.21875 C 12.625 -9.71875 12.140625 -10.113281 11.484375 -10.40625 L 9.796875 -11.171875 L 4.828125 -0.0625 C 4.585938 0.46875 4.46875 0.898438 4.46875 1.234375 C 4.476562 1.578125 4.546875 1.828125 4.671875 1.984375 C 4.796875 2.148438 4.863281 2.21875 4.875 2.1875 L 1.703125 0.765625 C 1.691406 0.796875 1.785156 0.796875 1.984375 0.765625 C 2.191406 0.734375 2.414062 0.613281 2.65625 0.40625 C 2.894531 0.195312 3.132812 -0.171875 3.375 -0.703125 L 7.84375 -10.6875 C 8.082031 -11.238281 8.207031 -11.679688 8.21875 -12.015625 C 8.226562 -12.359375 8.171875 -12.613281 8.046875 -12.78125 C 7.929688 -12.957031 7.867188 -13.023438 7.859375 -12.984375 L 11.796875 -11.21875 C 12.847656 -10.75 13.628906 -10.191406 14.140625 -9.546875 C 14.660156 -8.910156 14.945312 -8.253906 15 -7.578125 C 15.0625 -6.910156 14.953125 -6.257812 14.671875 -5.625 C 14.429688 -5.09375 14.070312 -4.625 13.59375 -4.21875 C 13.113281 -3.820312 12.550781 -3.535156 11.90625 -3.359375 C 11.257812 -3.191406 10.59375 -3.179688 9.90625 -3.328125 L 9.546875 -3.390625 L 11.078125 2.65625 C 11.304688 3.375 11.507812 3.941406 11.6875 4.359375 C 11.875 4.785156 12.015625 5.078125 12.109375 5.234375 C 12.203125 5.390625 12.265625 5.476562 12.296875 5.5 L 9.953125 4.453125 L 7.609375 -4.90625 Z M 8.8125 -4.359375 "/></g></g><g style="fill:#fbf9f6;fill-opacity:1;"><g transform="translate(224.083072, 90.653964)"><path style="stroke:none" d="M 1.578125 0.984375 C 1.554688 1.015625 1.648438 1.03125 1.859375 1.03125 C 2.066406 1.039062 2.3125 0.941406 2.59375 0.734375 C 2.882812 0.523438 3.195312 0.15625 3.53125 -0.375 L 9.234375 -9.484375 C 9.554688 -9.984375 9.742188 -10.40625 9.796875 -10.75 C 9.847656 -11.09375 9.828125 -11.359375 9.734375 -11.546875 C 9.648438 -11.734375 9.597656 -11.8125 9.578125 -11.78125 L 16.296875 -7.578125 L 15.125 -5.71875 C 15.363281 -6.601562 14.929688 -7.394531 13.828125 -8.09375 L 11.234375 -9.703125 L 7.9375 -4.421875 L 11.140625 -2.421875 C 11.378906 -2.273438 11.609375 -2.1875 11.828125 -2.15625 C 12.046875 -2.125 12.226562 -2.125 12.375 -2.15625 C 12.519531 -2.1875 12.601562 -2.21875 12.625 -2.25 L 11.5 -0.453125 C 11.5 -0.460938 11.484375 -0.539062 11.453125 -0.6875 C 11.421875 -0.832031 11.347656 -0.992188 11.234375 -1.171875 C 11.117188 -1.359375 10.9375 -1.523438 10.6875 -1.671875 L 7.46875 -3.6875 L 4.171875 1.59375 L 7.078125 3.40625 C 7.628906 3.75 8.175781 3.929688 8.71875 3.953125 C 9.257812 3.972656 9.734375 3.859375 10.140625 3.609375 L 8.5625 5.359375 Z M 1.578125 0.984375 "/></g></g><g style="fill:#fbf9f6;fill-opacity:1;"><g transform="translate(239.330585, 100.61889)"><path style="stroke:none" d="M 7.3125 -1.46875 L 3.984375 0.28125 C 3.460938 0.5625 3.09375 0.832031 2.875 1.09375 C 2.5625 1.457031 2.503906 1.859375 2.703125 2.296875 L 0.328125 0.265625 C 0.429688 0.367188 0.679688 0.394531 1.078125 0.34375 C 1.484375 0.300781 2.101562 0.0664062 2.9375 -0.359375 L 16.09375 -7.015625 L 11.578125 7.0625 C 11.304688 7.863281 11.191406 8.472656 11.234375 8.890625 C 11.273438 9.316406 11.351562 9.59375 11.46875 9.71875 L 8.703125 7.375 C 9.085938 7.476562 9.398438 7.390625 9.640625 7.109375 C 9.828125 6.878906 10.023438 6.472656 10.234375 5.890625 L 11.453125 2.0625 Z M 11.765625 1.140625 L 13.734375 -4.875 L 8.15625 -1.921875 Z M 11.765625 1.140625 "/></g></g><g style="fill:#fbf9f6;fill-opacity:1;"><g transform="translate(255.501354, 115.263164)"><path style="stroke:none" d=""/></g></g><g style="fill:#fbf9f6;fill-opacity:1;"><g transform="translate(263.80149, 124.435736)"><path style="stroke:none" d="M 9.265625 11.890625 C 8.535156 11.941406 8.007812 11.738281 7.6875 11.28125 C 7.4375 10.925781 7.285156 10.382812 7.234375 9.65625 C 7.191406 8.9375 7.21875 8 7.3125 6.84375 C 5.226562 6.507812 3.773438 5.765625 2.953125 4.609375 C 2.171875 3.515625 1.851562 2.457031 2 1.4375 C 2.15625 0.414062 2.703125 -0.425781 3.640625 -1.09375 C 4.390625 -1.625 5.175781 -1.851562 6 -1.78125 C 6.832031 -1.707031 7.820312 -1.4375 8.96875 -0.96875 C 9.488281 -2.800781 10.21875 -4.050781 11.15625 -4.71875 C 11.769531 -5.144531 12.390625 -5.367188 13.015625 -5.390625 C 13.648438 -5.421875 14.234375 -5.285156 14.765625 -4.984375 C 15.304688 -4.691406 15.757812 -4.285156 16.125 -3.765625 C 16.46875 -3.296875 16.691406 -2.78125 16.796875 -2.21875 C 16.898438 -1.664062 16.863281 -1.132812 16.6875 -0.625 C 16.507812 -0.125 16.175781 0.300781 15.6875 0.65625 C 15 1.144531 14.21875 1.332031 13.34375 1.21875 C 12.46875 1.113281 11.410156 0.820312 10.171875 0.34375 C 9.585938 2.40625 9.179688 4.316406 8.953125 6.078125 C 10.046875 6.015625 10.972656 5.914062 11.734375 5.78125 C 12.492188 5.65625 13.097656 5.429688 13.546875 5.109375 C 13.992188 4.796875 14.253906 4.398438 14.328125 3.921875 L 15.984375 6.234375 C 15.515625 6.148438 14.488281 6.265625 12.90625 6.578125 C 11.789062 6.816406 10.453125 6.929688 8.890625 6.921875 C 8.898438 7.023438 8.894531 7.191406 8.875 7.421875 C 8.820312 8.359375 8.816406 9.144531 8.859375 9.78125 C 8.898438 10.414062 9.066406 10.9375 9.359375 11.34375 C 9.441406 11.46875 9.671875 11.609375 10.046875 11.765625 C 9.796875 11.835938 9.535156 11.878906 9.265625 11.890625 Z M 15.484375 -3.5 C 15.054688 -4.09375 14.5625 -4.40625 14 -4.4375 C 13.4375 -4.46875 12.914062 -4.3125 12.4375 -3.96875 C 11.988281 -3.65625 11.59375 -3.160156 11.25 -2.484375 C 10.90625 -1.804688 10.617188 -1.097656 10.390625 -0.359375 C 11.367188 0.0664062 12.1875 0.28125 12.84375 0.28125 C 13.507812 0.28125 14.132812 0.0703125 14.71875 -0.34375 C 15.375 -0.800781 15.75 -1.320312 15.84375 -1.90625 C 15.9375 -2.5 15.816406 -3.03125 15.484375 -3.5 Z M 8.734375 -0.25 C 7.921875 -0.570312 7.203125 -0.742188 6.578125 -0.765625 C 5.960938 -0.785156 5.390625 -0.609375 4.859375 -0.234375 C 4.390625 0.0976562 4.035156 0.535156 3.796875 1.078125 C 3.554688 1.617188 3.457031 2.1875 3.5 2.78125 C 3.550781 3.375 3.742188 3.910156 4.078125 4.390625 C 4.441406 4.898438 4.867188 5.253906 5.359375 5.453125 C 5.859375 5.660156 6.539062 5.835938 7.40625 5.984375 C 7.53125 4.992188 7.710938 3.9375 7.953125 2.8125 C 8.191406 1.695312 8.453125 0.675781 8.734375 -0.25 Z M 8.734375 -0.25 "/></g></g><g style="fill:#fbf9f6;fill-opacity:1;"><g transform="translate(276.258386, 143.251611)"><path style="stroke:none" d=""/></g></g><g style="fill:#fbf9f6;fill-opacity:1;"><g transform="translate(281.996627, 154.225415)"><path style="stroke:none" d="M 7.125 2.203125 L 3.359375 2.15625 C 2.773438 2.144531 2.328125 2.203125 2.015625 2.328125 C 1.566406 2.503906 1.320312 2.832031 1.28125 3.3125 L 0.15625 0.390625 C 0.207031 0.523438 0.414062 0.671875 0.78125 0.828125 C 1.15625 0.984375 1.8125 1.070312 2.75 1.09375 L 17.484375 1.546875 L 6.78125 11.734375 C 6.164062 12.316406 5.773438 12.800781 5.609375 13.1875 C 5.453125 13.582031 5.382812 13.859375 5.40625 14.015625 L 4.109375 10.640625 C 4.410156 10.921875 4.734375 10.992188 5.078125 10.859375 C 5.359375 10.753906 5.722656 10.488281 6.171875 10.0625 L 9.078125 7.28125 Z M 9.796875 6.625 L 14.390625 2.3125 L 8.09375 2.21875 Z M 9.796875 6.625 "/></g></g><g style="fill:#fbf9f6;fill-opacity:1;"><g transform="translate(289.241626, 174.694488)"><path style="stroke:none" d="M 13.328125 -0.203125 C 13.890625 -0.335938 14.300781 -0.5 14.5625 -0.6875 C 14.820312 -0.882812 14.984375 -1.082031 15.046875 -1.28125 C 15.109375 -1.476562 15.125 -1.570312 15.09375 -1.5625 L 15.875 1.828125 C 15.90625 1.816406 15.847656 1.738281 15.703125 1.59375 C 15.566406 1.445312 15.335938 1.332031 15.015625 1.25 C 14.691406 1.175781 14.25 1.207031 13.6875 1.34375 L 1.84375 4.0625 L 2.640625 7.5625 C 2.785156 8.195312 3.039062 8.71875 3.40625 9.125 C 3.78125 9.53125 4.195312 9.789062 4.65625 9.90625 L 2.3125 10.015625 L 0.421875 1.8125 C 0.378906 1.820312 0.429688 1.898438 0.578125 2.046875 C 0.722656 2.191406 0.96875 2.289062 1.3125 2.34375 C 1.664062 2.40625 2.144531 2.367188 2.75 2.234375 Z M 13.328125 -0.203125 "/></g></g><g style="fill:#fbf9f6;fill-opacity:1;"><g transform="translate(292.820377, 192.136593)"><path style="stroke:none" d="M 0.171875 1.84375 C 0.128906 1.84375 0.171875 1.925781 0.296875 2.09375 C 0.429688 2.257812 0.664062 2.394531 1 2.5 C 1.34375 2.601562 1.820312 2.628906 2.4375 2.578125 L 13.140625 1.546875 C 13.734375 1.484375 14.179688 1.367188 14.484375 1.203125 C 14.796875 1.035156 15 0.859375 15.09375 0.671875 C 15.1875 0.484375 15.210938 0.394531 15.171875 0.40625 L 15.9375 8.296875 L 13.75 8.5 C 14.601562 8.15625 14.960938 7.332031 14.828125 6.03125 L 14.546875 3 L 8.359375 3.59375 L 8.71875 7.34375 C 8.75 7.625 8.816406 7.859375 8.921875 8.046875 C 9.035156 8.242188 9.144531 8.390625 9.25 8.484375 C 9.363281 8.585938 9.4375 8.640625 9.46875 8.640625 L 7.359375 8.84375 C 7.378906 8.832031 7.4375 8.769531 7.53125 8.65625 C 7.625 8.539062 7.707031 8.382812 7.78125 8.1875 C 7.851562 7.988281 7.875 7.75 7.84375 7.46875 L 7.484375 3.6875 L 1.296875 4.28125 L 1.625 7.6875 C 1.6875 8.332031 1.875 8.878906 2.1875 9.328125 C 2.507812 9.773438 2.882812 10.078125 3.3125 10.234375 L 0.96875 10.0625 Z M 0.171875 1.84375 "/></g></g><g style="fill:#fbf9f6;fill-opacity:1;"><g transform="translate(294.23238, 210.286077)"><path style="stroke:none" d="M -0.5625 11.21875 C -0.53125 11.476562 -0.40625 11.613281 -0.1875 11.625 C 0.0703125 11.644531 0.367188 11.550781 0.703125 11.34375 C 1.046875 11.144531 1.242188 11.03125 1.296875 11 L 6.15625 8.171875 L 1.75 4.515625 C 1.46875 4.285156 1.21875 4.101562 1 3.96875 C 0.78125 3.832031 0.570312 3.757812 0.375 3.75 C 0.0625 3.726562 -0.132812 3.953125 -0.21875 4.421875 L -0.0625 1.140625 C -0.09375 1.140625 -0.0625 1.226562 0.03125 1.40625 C 0.132812 1.582031 0.332031 1.84375 0.625 2.1875 C 0.914062 2.539062 1.363281 2.960938 1.96875 3.453125 L 7.03125 7.6875 L 12.671875 4.453125 C 13.316406 4.078125 13.804688 3.734375 14.140625 3.421875 C 14.484375 3.117188 14.710938 2.867188 14.828125 2.671875 C 14.953125 2.484375 15 2.382812 14.96875 2.375 L 14.78125 6.03125 C 14.726562 5.75 14.59375 5.601562 14.375 5.59375 C 14.15625 5.582031 13.796875 5.726562 13.296875 6.03125 L 8.40625 8.8125 L 12.453125 12.203125 C 13.023438 12.679688 13.492188 12.925781 13.859375 12.9375 C 14.203125 12.957031 14.40625 12.75 14.46875 12.3125 L 14.296875 15.578125 C 14.304688 15.578125 14.273438 15.484375 14.203125 15.296875 C 14.140625 15.117188 13.988281 14.878906 13.75 14.578125 C 13.507812 14.273438 13.148438 13.929688 12.671875 13.546875 L 7.546875 9.296875 L 1.921875 12.546875 C 1.160156 12.984375 0.582031 13.375 0.1875 13.71875 C -0.195312 14.0625 -0.457031 14.335938 -0.59375 14.546875 C -0.726562 14.765625 -0.78125 14.875 -0.75 14.875 Z M -0.5625 11.21875 "/></g></g><g style="fill:#fbf9f6;fill-opacity:1;"><g transform="translate(292.384024, 232.603467)"><path style="stroke:none" d="M -0.328125 1.8125 C -0.367188 1.800781 -0.347656 1.890625 -0.265625 2.078125 C -0.191406 2.273438 -0.0234375 2.46875 0.234375 2.65625 C 0.503906 2.851562 0.925781 3.003906 1.5 3.109375 L 12.328125 5.078125 C 12.898438 5.179688 13.34375 5.191406 13.65625 5.109375 C 13.976562 5.035156 14.203125 4.921875 14.328125 4.765625 C 14.460938 4.609375 14.515625 4.53125 14.484375 4.53125 L 13.859375 7.953125 C 13.890625 7.953125 13.867188 7.851562 13.796875 7.65625 C 13.734375 7.46875 13.566406 7.273438 13.296875 7.078125 C 13.035156 6.878906 12.617188 6.726562 12.046875 6.625 L 1.21875 4.65625 C 0.644531 4.550781 0.203125 4.546875 -0.109375 4.640625 C -0.429688 4.734375 -0.660156 4.851562 -0.796875 5 C -0.929688 5.15625 -0.984375 5.238281 -0.953125 5.25 Z M -0.328125 1.8125 "/></g></g><g style="fill:#fbf9f6;fill-opacity:1;"><g transform="translate(289.692192, 245.981016)"><path style="stroke:none" d="M -1.953125 5.515625 C -1.734375 4.785156 -1.421875 4.117188 -1.015625 3.515625 C -0.609375 2.910156 -0.144531 2.390625 0.375 1.953125 L 2.921875 2.734375 C 1.867188 2.816406 0.988281 3.15625 0.28125 3.75 C -0.425781 4.351562 -0.90625 5.054688 -1.15625 5.859375 C -1.40625 6.671875 -1.34375 7.429688 -0.96875 8.140625 C -0.59375 8.859375 -0.0078125 9.335938 0.78125 9.578125 C 1.3125 9.742188 1.800781 9.773438 2.25 9.671875 C 2.695312 9.566406 3.15625 9.328125 3.625 8.953125 C 4.101562 8.578125 4.671875 8.019531 5.328125 7.28125 C 6.265625 6.226562 7.117188 5.515625 7.890625 5.140625 C 8.660156 4.773438 9.476562 4.726562 10.34375 5 C 11.082031 5.21875 11.6875 5.59375 12.15625 6.125 C 12.632812 6.664062 12.9375 7.289062 13.0625 8 C 13.195312 8.707031 13.148438 9.425781 12.921875 10.15625 C 12.734375 10.78125 12.460938 11.363281 12.109375 11.90625 C 11.753906 12.445312 11.332031 12.925781 10.84375 13.34375 L 8.59375 12.65625 C 9.46875 12.550781 10.21875 12.226562 10.84375 11.6875 C 11.476562 11.144531 11.90625 10.519531 12.125 9.8125 C 12.363281 9.019531 12.296875 8.300781 11.921875 7.65625 C 11.546875 7.007812 11.003906 6.578125 10.296875 6.359375 C 9.785156 6.203125 9.296875 6.210938 8.828125 6.390625 C 8.367188 6.566406 7.945312 6.832031 7.5625 7.1875 C 7.1875 7.539062 6.707031 8.046875 6.125 8.703125 C 5.5 9.359375 4.945312 9.890625 4.46875 10.296875 C 4 10.703125 3.457031 10.992188 2.84375 11.171875 C 2.226562 11.347656 1.546875 11.328125 0.796875 11.109375 C -0.0351562 10.847656 -0.695312 10.425781 -1.1875 9.84375 C -1.6875 9.269531 -2 8.597656 -2.125 7.828125 C -2.25 7.066406 -2.191406 6.296875 -1.953125 5.515625 Z M -1.953125 5.515625 "/></g></g><g style="fill:#fbf9f6;fill-opacity:1;"><g transform="translate(74.442103, 260.678147)"><path style="stroke:none" d="M 35.34375 -35.015625 C 37.695312 -34.742188 39.796875 -34.082031 41.640625 -33.03125 C 43.484375 -31.988281 44.953125 -30.675781 46.046875 -29.09375 C 47.140625 -27.519531 47.6875 -25.820312 47.6875 -24 C 47.6875 -22.226562 47.171875 -20.539062 46.140625 -18.9375 C 45.117188 -17.332031 43.695312 -16.019531 41.875 -15 L 36.875 -12.078125 C 36.875 -9.492188 35.953125 -7.125 34.109375 -4.96875 C 32.265625 -2.8125 29.785156 -1.222656 26.671875 -0.203125 C 26.585938 -0.203125 26.585938 -0.203125 26.671875 -0.203125 C 24.710938 0.421875 22.644531 0.734375 20.46875 0.734375 L 20 0.796875 C 19.914062 0.796875 19.828125 0.796875 19.734375 0.796875 C 19.648438 0.796875 19.5625 0.773438 19.46875 0.734375 L 18.671875 0.734375 C 16.140625 0.734375 13.835938 0.113281 11.765625 -1.125 C 9.703125 -2.375 8.046875 -4.054688 6.796875 -6.171875 C 5.554688 -8.285156 4.9375 -10.609375 4.9375 -13.140625 C 4.9375 -15.359375 5.398438 -17.410156 6.328125 -19.296875 C 7.265625 -21.191406 8.554688 -22.796875 10.203125 -24.109375 C 11.847656 -25.421875 13.691406 -26.296875 15.734375 -26.734375 C 13.691406 -27.179688 11.847656 -28.0625 10.203125 -29.375 C 8.554688 -30.6875 7.265625 -32.285156 6.328125 -34.171875 C 5.398438 -36.066406 4.9375 -38.125 4.9375 -40.34375 C 4.9375 -42.925781 5.554688 -45.257812 6.796875 -47.34375 C 8.046875 -49.4375 9.703125 -51.113281 11.765625 -52.375 C 13.835938 -53.644531 16.140625 -54.28125 18.671875 -54.28125 L 19.46875 -54.28125 C 19.46875 -54.28125 19.492188 -54.28125 19.546875 -54.28125 C 19.847656 -54.28125 20.085938 -54.28125 20.265625 -54.28125 C 22.492188 -54.28125 24.628906 -53.945312 26.671875 -53.28125 C 29.785156 -52.300781 32.265625 -50.734375 34.109375 -48.578125 C 35.953125 -46.421875 36.875 -44.03125 36.875 -41.40625 C 36.875 -41.1875 36.765625 -41.078125 36.546875 -41.078125 L 34.75 -41.078125 C 34.65625 -41.078125 34.585938 -41.125 34.546875 -41.21875 C 34.453125 -41.300781 34.40625 -41.390625 34.40625 -41.484375 C 34.632812 -42.679688 34.601562 -43.976562 34.3125 -45.375 C 34.019531 -46.78125 33.273438 -48.125 32.078125 -49.40625 C 30.878906 -50.695312 29.007812 -51.789062 26.46875 -52.6875 C 24.46875 -53.300781 22.398438 -53.609375 20.265625 -53.609375 C 20.085938 -53.609375 19.847656 -53.609375 19.546875 -53.609375 C 19.546875 -53.609375 19.519531 -53.609375 19.46875 -53.609375 C 17.25 -53.609375 15.21875 -53.007812 13.375 -51.8125 C 11.53125 -50.613281 10.0625 -49.015625 8.96875 -47.015625 C 7.875 -45.015625 7.328125 -42.789062 7.328125 -40.34375 C 7.328125 -37.894531 7.875 -35.679688 8.96875 -33.703125 C 10.0625 -31.734375 11.519531 -30.144531 13.34375 -28.9375 C 15.164062 -27.738281 17.1875 -27.117188 19.40625 -27.078125 C 19.976562 -28.671875 20.976562 -30.085938 22.40625 -31.328125 C 23.832031 -32.578125 25.546875 -33.535156 27.546875 -34.203125 C 27.546875 -34.203125 27.566406 -34.203125 27.609375 -34.203125 C 29.390625 -34.785156 31.253906 -35.097656 33.203125 -35.140625 C 33.742188 -35.140625 34.234375 -35.117188 34.671875 -35.078125 C 34.804688 -35.078125 35.03125 -35.054688 35.34375 -35.015625 Z M 26.46875 -0.859375 C 28.695312 -1.617188 30.398438 -2.550781 31.578125 -3.65625 C 32.753906 -4.769531 33.550781 -5.9375 33.96875 -7.15625 C 34.394531 -8.382812 34.585938 -9.578125 34.546875 -10.734375 L 25.609375 -5.46875 C 23.160156 -4.039062 21.582031 -2.195312 20.875 0.0625 C 22.832031 0.0195312 24.695312 -0.285156 26.46875 -0.859375 Z M 40.953125 -17 C 42.546875 -17.9375 43.785156 -19.082031 44.671875 -20.4375 C 45.566406 -21.789062 46.015625 -23.222656 46.015625 -24.734375 C 46.015625 -26.335938 45.546875 -27.816406 44.609375 -29.171875 C 43.679688 -30.523438 42.414062 -31.65625 40.8125 -32.5625 C 39.207031 -33.476562 37.382812 -34.070312 35.34375 -34.34375 C 35.300781 -34.34375 35.28125 -34.34375 35.28125 -34.34375 C 34.96875 -34.382812 34.742188 -34.40625 34.609375 -34.40625 C 34.210938 -34.457031 33.742188 -34.484375 33.203125 -34.484375 C 31.335938 -34.484375 29.5625 -34.191406 27.875 -33.609375 C 27.832031 -33.609375 27.8125 -33.609375 27.8125 -33.609375 C 27.757812 -33.609375 27.757812 -33.609375 27.8125 -33.609375 C 25.632812 -32.859375 24.03125 -31.925781 23 -30.8125 C 21.976562 -29.695312 21.34375 -28.539062 21.09375 -27.34375 C 20.851562 -26.144531 20.820312 -25.007812 21 -23.9375 C 21 -23.851562 20.976562 -23.765625 20.9375 -23.671875 C 20.851562 -23.628906 20.765625 -23.609375 20.671875 -23.609375 L 19.140625 -23.609375 C 18.921875 -23.609375 18.8125 -23.695312 18.8125 -23.875 C 18.8125 -24.71875 18.921875 -25.5625 19.140625 -26.40625 C 16.960938 -26.320312 14.972656 -25.675781 13.171875 -24.46875 C 11.367188 -23.269531 9.941406 -21.679688 8.890625 -19.703125 C 7.847656 -17.722656 7.328125 -15.535156 7.328125 -13.140625 C 7.328125 -10.785156 7.847656 -8.628906 8.890625 -6.671875 C 9.941406 -4.710938 11.34375 -3.117188 13.09375 -1.890625 C 14.851562 -0.671875 16.820312 -0.0195312 19 0.0625 C 19.488281 -3.039062 21.378906 -5.550781 24.671875 -7.46875 Z M 40.953125 -17 "/></g></g></g></g></g></svg>