<svg xmlns="http://www.w3.org/2000/svg" xmlns:xlink="http://www.w3.org/1999/xlink" width="500" zoomAndPan="magnify" viewBox="0 0 375 374.999991" height="500" preserveAspectRatio="xMidYMid meet" version="1.2"><defs><clipPath id="d0d2054e9f"><path d="M 5.3125 64.910156 L 297.6875 64.910156 L 297.6875 357.285156 L 5.3125 357.285156 Z M 5.3125 64.910156 "/></clipPath><clipPath id="89e1904c93"><path d="M 151.5 64.910156 C 70.761719 64.910156 5.3125 130.359375 5.3125 211.097656 C 5.3125 291.835938 70.761719 357.285156 151.5 357.285156 C 232.238281 357.285156 297.6875 291.835938 297.6875 211.097656 C 297.6875 130.359375 232.238281 64.910156 151.5 64.910156 Z M 151.5 64.910156 "/></clipPath><clipPath id="22c96e809e"><rect x="0" width="90" y="0" height="211"/></clipPath><clipPath id="b413da40ab"><path d="M 123 162 L 212 162 L 212 372.398438 L 123 372.398438 Z M 123 162 "/></clipPath><clipPath id="94657f2a0f"><rect x="0" width="89" y="0" height="211"/></clipPath><clipPath id="0ba4b4c5da"><rect x="0" width="370" y="0" height="373"/></clipPath></defs><g id="ad0093e315"><g transform="matrix(1,0,0,1,4,2)"><g clip-path="url(#0ba4b4c5da)"><g clip-rule="nonzero" clip-path="url(#d0d2054e9f)"><g clip-rule="nonzero" clip-path="url(#89e1904c93)"><path style="fill:none;stroke-width:1.18295;stroke-linecap:butt;stroke-linejoin:miter;stroke:#000000;stroke-opacity:1;stroke-miterlimit:4;" d="M 115.289009 0.000493246 C 51.616091 0.000493246 0.000640521 51.615944 0.000640521 115.288862 C 0.000640521 178.96178 51.616091 230.57723 115.289009 230.57723 C 178.961927 230.57723 230.577377 178.96178 230.577377 115.288862 C 230.577377 51.615944 178.961927 0.000493246 115.289009 0.000493246 Z M 115.289009 0.000493246 " transform="matrix(1.268016,0,0,1.268016,5.311688,64.909531)"/></g></g><g transform="matrix(1,0,0,1,87,73)"><g id="dc6c495a97" clip-path="url(#22c96e809e)"><g style="fill:#000000;fill-opacity:1;"><g transform="translate(1.076261, 144.815741)"><path style="stroke:none" d="M 2.515625 0.78125 C 1.992188 0.78125 1.734375 0.519531 1.734375 0 C 1.734375 -0.519531 1.992188 -0.78125 2.515625 -0.78125 C 4.085938 -0.78125 5.132812 -1.566406 5.65625 -3.140625 L 25.296875 -68.046875 L 41.328125 -121.171875 L 43.0625 -127.140625 L 43.21875 -127.296875 C 43.113281 -127.296875 43.113281 -127.347656 43.21875 -127.453125 C 43.21875 -127.453125 43.21875 -127.503906 43.21875 -127.609375 C 43.320312 -127.609375 43.375 -127.609375 43.375 -127.609375 C 43.375 -127.710938 43.375 -127.765625 43.375 -127.765625 C 43.375 -127.765625 43.425781 -127.765625 43.53125 -127.765625 C 43.738281 -127.867188 43.789062 -127.921875 43.6875 -127.921875 C 43.6875 -127.816406 43.6875 -127.816406 43.6875 -127.921875 C 43.789062 -127.921875 43.84375 -127.921875 43.84375 -127.921875 C 43.945312 -127.921875 44 -127.921875 44 -127.921875 C 44.101562 -127.816406 44.15625 -127.816406 44.15625 -127.921875 C 44.050781 -127.921875 44.050781 -127.867188 44.15625 -127.765625 C 44.257812 -127.765625 44.3125 -127.765625 44.3125 -127.765625 C 44.3125 -127.660156 44.3125 -127.660156 44.3125 -127.765625 C 44.3125 -127.765625 44.363281 -127.710938 44.46875 -127.609375 C 44.570312 -127.503906 44.625 -127.453125 44.625 -127.453125 C 44.625 -127.347656 44.625 -127.296875 44.625 -127.296875 L 82.03125 -3.140625 C 82.5625 -1.566406 83.609375 -0.78125 85.171875 -0.78125 C 85.703125 -0.78125 85.96875 -0.519531 85.96875 0 C 85.96875 0.519531 85.703125 0.78125 85.171875 0.78125 L 75.59375 0.78125 C 75.070312 0.78125 74.8125 0.519531 74.8125 0 C 74.8125 -0.519531 75.070312 -0.78125 75.59375 -0.78125 C 76.113281 -0.78125 76.476562 -0.9375 76.6875 -1.25 C 77 -1.675781 77.050781 -2.203125 76.84375 -2.828125 L 70.40625 -24.515625 C 70.300781 -24.617188 70.25 -24.617188 70.25 -24.515625 C 66.789062 -34.679688 61.179688 -43.507812 53.421875 -51 C 45.671875 -58.488281 36.71875 -63.804688 26.5625 -66.953125 L 7.078125 -2.828125 C 6.972656 -2.203125 7.023438 -1.675781 7.234375 -1.25 C 7.546875 -0.9375 7.960938 -0.78125 8.484375 -0.78125 C 9.003906 -0.78125 9.265625 -0.519531 9.265625 0 C 9.265625 0.519531 9.003906 0.78125 8.484375 0.78125 Z M 26.875 -68.359375 C 35.46875 -65.742188 43.21875 -61.632812 50.125 -56.03125 C 57.039062 -50.425781 62.597656 -43.742188 66.796875 -35.984375 L 41.953125 -118.34375 Z M 26.875 -68.359375 "/></g></g></g></g><g clip-rule="nonzero" clip-path="url(#b413da40ab)"><g transform="matrix(1,0,0,1,123,162)"><g id="93d84d6fc0" clip-path="url(#94657f2a0f)"><g style="fill:#000000;fill-opacity:1;"><g transform="translate(0.418844, 145.126248)"><path style="stroke:none" d="M 2.515625 0.78125 C 1.992188 0.78125 1.734375 0.519531 1.734375 0 C 1.734375 -0.519531 1.992188 -0.78125 2.515625 -0.78125 C 4.085938 -0.78125 5.132812 -1.566406 5.65625 -3.140625 L 25.296875 -68.046875 L 41.328125 -121.171875 L 43.0625 -127.140625 L 43.21875 -127.296875 C 43.113281 -127.296875 43.113281 -127.347656 43.21875 -127.453125 C 43.21875 -127.453125 43.21875 -127.503906 43.21875 -127.609375 C 43.320312 -127.609375 43.375 -127.609375 43.375 -127.609375 C 43.375 -127.710938 43.375 -127.765625 43.375 -127.765625 C 43.375 -127.765625 43.425781 -127.765625 43.53125 -127.765625 C 43.738281 -127.867188 43.789062 -127.921875 43.6875 -127.921875 C 43.6875 -127.816406 43.6875 -127.816406 43.6875 -127.921875 C 43.789062 -127.921875 43.84375 -127.921875 43.84375 -127.921875 C 43.945312 -127.921875 44 -127.921875 44 -127.921875 C 44.101562 -127.816406 44.15625 -127.816406 44.15625 -127.921875 C 44.050781 -127.921875 44.050781 -127.867188 44.15625 -127.765625 C 44.257812 -127.765625 44.3125 -127.765625 44.3125 -127.765625 C 44.3125 -127.660156 44.3125 -127.660156 44.3125 -127.765625 C 44.3125 -127.765625 44.363281 -127.710938 44.46875 -127.609375 C 44.570312 -127.503906 44.625 -127.453125 44.625 -127.453125 C 44.625 -127.347656 44.625 -127.296875 44.625 -127.296875 L 82.03125 -3.140625 C 82.5625 -1.566406 83.609375 -0.78125 85.171875 -0.78125 C 85.703125 -0.78125 85.96875 -0.519531 85.96875 0 C 85.96875 0.519531 85.703125 0.78125 85.171875 0.78125 L 75.59375 0.78125 C 75.070312 0.78125 74.8125 0.519531 74.8125 0 C 74.8125 -0.519531 75.070312 -0.78125 75.59375 -0.78125 C 76.113281 -0.78125 76.476562 -0.9375 76.6875 -1.25 C 77 -1.675781 77.050781 -2.203125 76.84375 -2.828125 L 70.40625 -24.515625 C 70.300781 -24.617188 70.25 -24.617188 70.25 -24.515625 C 66.789062 -34.679688 61.179688 -43.507812 53.421875 -51 C 45.671875 -58.488281 36.71875 -63.804688 26.5625 -66.953125 L 7.078125 -2.828125 C 6.972656 -2.203125 7.023438 -1.675781 7.234375 -1.25 C 7.546875 -0.9375 7.960938 -0.78125 8.484375 -0.78125 C 9.003906 -0.78125 9.265625 -0.519531 9.265625 0 C 9.265625 0.519531 9.003906 0.78125 8.484375 0.78125 Z M 26.875 -68.359375 C 35.46875 -65.742188 43.21875 -61.632812 50.125 -56.03125 C 57.039062 -50.425781 62.597656 -43.742188 66.796875 -35.984375 L 41.953125 -118.34375 Z M 26.875 -68.359375 "/></g></g></g></g></g><path style=" stroke:none;fill-rule:nonzero;fill:#fbf9f7;fill-opacity:1;" d="M 128.253906 60.371094 C 128.167969 59.8125 128.136719 59.253906 128.160156 58.6875 C 128.183594 58.121094 128.261719 57.566406 128.394531 57.015625 C 128.527344 56.464844 128.707031 55.933594 128.941406 55.421875 C 129.175781 54.90625 129.457031 54.417969 129.789062 53.960938 C 130.117188 53.5 130.484375 53.078125 130.894531 52.6875 C 131.304688 52.300781 131.75 51.953125 132.226562 51.652344 C 132.707031 51.351562 133.207031 51.097656 133.734375 50.890625 C 134.261719 50.6875 134.800781 50.535156 135.359375 50.433594 C 138.773438 50.007812 142.199219 49.691406 145.632812 49.480469 C 149.066406 49.273438 152.503906 49.175781 155.945312 49.1875 C 159.386719 49.199219 162.824219 49.316406 166.257812 49.546875 C 169.691406 49.777344 173.113281 50.117188 176.523438 50.566406 C 179.9375 51.015625 183.332031 51.570312 186.707031 52.234375 C 190.082031 52.898438 193.433594 53.671875 196.761719 54.550781 C 200.089844 55.425781 203.382812 56.410156 206.648438 57.5 C 209.914062 58.585938 213.140625 59.777344 216.328125 61.070312 C 219.515625 62.367188 222.660156 63.757812 225.761719 65.253906 C 228.859375 66.75 231.910156 68.339844 234.90625 70.027344 C 237.90625 71.714844 240.847656 73.5 243.730469 75.375 C 246.617188 77.25 249.4375 79.21875 252.199219 81.273438 C 254.957031 83.328125 257.648438 85.46875 260.273438 87.699219 C 262.894531 89.925781 265.445312 92.234375 267.917969 94.625 C 270.394531 97.011719 272.792969 99.480469 275.109375 102.023438 C 277.429688 104.566406 279.664062 107.179688 281.816406 109.863281 C 283.96875 112.550781 286.03125 115.300781 288.007812 118.117188 C 289.988281 120.933594 291.871094 123.808594 293.664062 126.746094 C 295.457031 129.683594 297.15625 132.675781 298.757812 135.71875 C 300.363281 138.765625 301.867188 141.855469 303.269531 145 C 304.675781 148.140625 305.980469 151.320312 307.183594 154.546875 C 308.386719 157.769531 309.484375 161.027344 310.480469 164.324219 C 311.476562 167.617188 312.363281 170.9375 313.148438 174.289062 C 313.929688 177.640625 314.605469 181.011719 315.175781 184.40625 C 315.742188 187.800781 316.203125 191.207031 316.554688 194.632812 C 316.90625 198.054688 317.148438 201.484375 317.28125 204.925781 C 317.414062 208.363281 317.433594 211.800781 317.347656 215.242188 C 317.261719 218.679688 317.066406 222.117188 316.761719 225.542969 C 316.453125 228.96875 316.039062 232.382812 315.515625 235.785156 C 314.992188 239.1875 314.363281 242.566406 313.625 245.929688 C 312.886719 249.289062 312.039062 252.621094 311.089844 255.929688 C 310.140625 259.238281 309.082031 262.511719 307.921875 265.75 C 307.703125 266.269531 307.4375 266.765625 307.121094 267.234375 C 306.808594 267.703125 306.453125 268.140625 306.050781 268.539062 C 305.652344 268.941406 305.21875 269.296875 304.75 269.613281 C 304.28125 269.929688 303.789062 270.199219 303.269531 270.417969 C 302.75 270.640625 302.210938 270.808594 301.660156 270.925781 C 301.105469 271.042969 300.546875 271.105469 299.980469 271.113281 C 299.417969 271.121094 298.855469 271.074219 298.300781 270.976562 C 297.746094 270.875 297.203125 270.722656 296.675781 270.519531 L 280.527344 263.734375 C 279.976562 263.523438 279.457031 263.261719 278.957031 262.949219 C 278.460938 262.632812 278 262.273438 277.578125 261.867188 C 277.152344 261.460938 276.773438 261.015625 276.441406 260.53125 C 276.105469 260.046875 275.820312 259.535156 275.589844 258.996094 C 275.359375 258.457031 275.183594 257.898438 275.0625 257.324219 C 274.945312 256.746094 274.882812 256.164062 274.882812 255.578125 C 274.878906 254.992188 274.9375 254.410156 275.050781 253.832031 C 275.167969 253.253906 275.339844 252.695312 275.566406 252.15625 C 276.421875 249.640625 277.203125 247.101562 277.902344 244.535156 C 278.597656 241.972656 279.21875 239.390625 279.753906 236.789062 C 280.289062 234.183594 280.746094 231.566406 281.117188 228.9375 C 281.488281 226.304688 281.777344 223.664062 281.984375 221.015625 C 282.191406 218.367188 282.3125 215.714844 282.351562 213.058594 C 282.394531 210.398438 282.347656 207.746094 282.222656 205.089844 C 282.09375 202.4375 281.882812 199.789062 281.589844 197.148438 C 281.296875 194.507812 280.921875 191.875 280.464844 189.257812 C 280.003906 186.640625 279.464844 184.042969 278.84375 181.457031 C 278.222656 178.875 277.519531 176.3125 276.738281 173.773438 C 275.953125 171.234375 275.09375 168.722656 274.152344 166.234375 C 273.210938 163.75 272.195312 161.296875 271.101562 158.875 C 270.003906 156.453125 268.835938 154.070312 267.59375 151.722656 C 266.347656 149.375 265.03125 147.066406 263.640625 144.800781 C 262.253906 142.535156 260.792969 140.316406 259.265625 138.144531 C 257.738281 135.96875 256.140625 133.847656 254.480469 131.773438 C 252.816406 129.699219 251.09375 127.679688 249.304688 125.714844 C 247.515625 123.75 245.667969 121.84375 243.757812 119.992188 C 241.851562 118.144531 239.886719 116.355469 237.867188 114.632812 C 235.84375 112.90625 233.773438 111.246094 231.648438 109.648438 C 229.523438 108.054688 227.347656 106.527344 225.128906 105.066406 C 222.90625 103.609375 220.644531 102.21875 218.335938 100.902344 C 216.027344 99.585938 213.679688 98.34375 211.292969 97.171875 C 208.90625 96.003906 206.488281 94.910156 204.03125 93.894531 C 201.578125 92.875 199.09375 91.9375 196.578125 91.074219 C 194.066406 90.214844 191.527344 89.429688 188.964844 88.730469 C 186.402344 88.027344 183.820312 87.40625 181.21875 86.867188 C 178.617188 86.328125 176 85.867188 173.367188 85.492188 C 170.738281 85.117188 168.097656 84.824219 165.449219 84.613281 C 162.800781 84.40625 160.148438 84.277344 157.492188 84.234375 C 154.832031 84.191406 152.179688 84.230469 149.523438 84.355469 C 146.867188 84.480469 144.222656 84.6875 141.578125 84.976562 C 141 85.078125 140.417969 85.125 139.832031 85.113281 C 139.242188 85.097656 138.664062 85.027344 138.089844 84.898438 C 137.515625 84.765625 136.960938 84.582031 136.425781 84.339844 C 135.890625 84.097656 135.382812 83.804688 134.90625 83.460938 C 134.429688 83.117188 133.992188 82.730469 133.59375 82.296875 C 133.195312 81.867188 132.84375 81.398438 132.539062 80.898438 C 132.234375 80.394531 131.984375 79.867188 131.785156 79.3125 C 131.585938 78.761719 131.445312 78.191406 131.359375 77.609375 Z M 128.253906 60.371094 "/><g style="fill:#000000;fill-opacity:1;"><g transform="translate(138.498365, 73.429635)"><path style="stroke:none" d="M 4.21875 -6.140625 L 3.0625 -2.578125 C 2.875 -2.035156 2.796875 -1.585938 2.828125 -1.234375 C 2.859375 -0.753906 3.09375 -0.421875 3.53125 -0.234375 L 0.421875 -0.03125 C 0.566406 -0.0390625 0.765625 -0.195312 1.015625 -0.5 C 1.273438 -0.8125 1.5625 -1.414062 1.875 -2.3125 L 6.640625 -16.265625 L 13.234375 -3.015625 C 13.609375 -2.242188 13.953125 -1.722656 14.265625 -1.453125 C 14.585938 -1.179688 14.835938 -1.035156 15.015625 -1.015625 L 11.375 -0.78125 C 11.726562 -0.976562 11.890625 -1.257812 11.859375 -1.625 C 11.835938 -1.925781 11.695312 -2.359375 11.4375 -2.921875 L 9.671875 -6.515625 Z M 9.25 -7.390625 L 6.46875 -13.0625 L 4.53125 -7.078125 Z M 9.25 -7.390625 "/></g></g><g style="fill:#000000;fill-opacity:1;"><g transform="translate(160.080917, 72.391899)"><path style="stroke:none" d="M 17.34375 -13.453125 C 17.132812 -13.429688 16.914062 -13.289062 16.6875 -13.03125 C 16.46875 -12.769531 16.328125 -12.28125 16.265625 -11.5625 L 14.9375 2.0625 L 5.046875 -12.03125 L 4.03125 -1.578125 C 3.96875 -0.890625 4.039062 -0.390625 4.25 -0.078125 C 4.46875 0.222656 4.695312 0.410156 4.9375 0.484375 L 1.84375 0.171875 C 2.050781 0.148438 2.273438 0.0078125 2.515625 -0.25 C 2.753906 -0.519531 2.90625 -1.007812 2.96875 -1.71875 L 4.03125 -12.625 C 4.070312 -13.113281 3.945312 -13.578125 3.65625 -14.015625 C 3.363281 -14.460938 2.972656 -14.757812 2.484375 -14.90625 L 5.1875 -14.640625 L 14.25 -1.734375 L 15.21875 -11.671875 C 15.320312 -12.796875 15.003906 -13.492188 14.265625 -13.765625 Z M 17.34375 -13.453125 "/></g></g><g style="fill:#000000;fill-opacity:1;"><g transform="translate(183.924315, 75.311357)"><path style="stroke:none" d="M 11.59375 1.875 C 10.039062 2.300781 8.160156 2.21875 5.953125 1.625 L 1.796875 0.484375 C 1.785156 0.523438 1.878906 0.507812 2.078125 0.4375 C 2.285156 0.363281 2.5 0.1875 2.71875 -0.09375 C 2.9375 -0.382812 3.128906 -0.84375 3.296875 -1.46875 L 6.125 -11.875 C 6.269531 -12.414062 6.316406 -12.847656 6.265625 -13.171875 C 6.222656 -13.503906 6.128906 -13.738281 5.984375 -13.875 C 5.835938 -14.019531 5.757812 -14.082031 5.75 -14.0625 L 9.890625 -12.9375 C 12.046875 -12.351562 13.65625 -11.535156 14.71875 -10.484375 C 15.664062 -9.566406 16.296875 -8.492188 16.609375 -7.265625 C 16.929688 -6.035156 16.914062 -4.765625 16.5625 -3.453125 C 16.164062 -2.015625 15.535156 -0.847656 14.671875 0.046875 C 13.816406 0.941406 12.789062 1.550781 11.59375 1.875 Z M 13.859375 -9.6875 C 13.347656 -10.257812 12.765625 -10.734375 12.109375 -11.109375 C 11.453125 -11.484375 10.632812 -11.804688 9.65625 -12.078125 L 7.9375 -12.546875 L 4.453125 0.296875 L 6.171875 0.765625 C 7.328125 1.085938 8.300781 1.25 9.09375 1.25 C 9.882812 1.25 10.601562 1.117188 11.25 0.859375 C 12.09375 0.515625 12.816406 -0.0390625 13.421875 -0.8125 C 14.023438 -1.582031 14.484375 -2.546875 14.796875 -3.703125 C 15.128906 -4.929688 15.207031 -6.0625 15.03125 -7.09375 C 14.851562 -8.132812 14.460938 -9 13.859375 -9.6875 Z M 13.859375 -9.6875 "/></g></g><g style="fill:#000000;fill-opacity:1;"><g transform="translate(205.823486, 81.902066)"><path style="stroke:none" d="M 8.8125 -4.359375 C 9.414062 -4.085938 10.007812 -3.988281 10.59375 -4.0625 C 11.1875 -4.144531 11.703125 -4.363281 12.140625 -4.71875 C 12.578125 -5.082031 12.910156 -5.515625 13.140625 -6.015625 C 13.367188 -6.546875 13.476562 -7.085938 13.46875 -7.640625 C 13.457031 -8.203125 13.285156 -8.726562 12.953125 -9.21875 C 12.628906 -9.71875 12.144531 -10.113281 11.5 -10.40625 L 9.796875 -11.171875 L 4.828125 -0.0625 C 4.585938 0.46875 4.46875 0.898438 4.46875 1.234375 C 4.476562 1.578125 4.546875 1.828125 4.671875 1.984375 C 4.796875 2.148438 4.863281 2.21875 4.875 2.1875 L 1.703125 0.765625 C 1.691406 0.796875 1.785156 0.796875 1.984375 0.765625 C 2.191406 0.734375 2.414062 0.613281 2.65625 0.40625 C 2.894531 0.195312 3.132812 -0.171875 3.375 -0.703125 L 7.84375 -10.703125 C 8.082031 -11.242188 8.207031 -11.6875 8.21875 -12.03125 C 8.226562 -12.375 8.175781 -12.628906 8.0625 -12.796875 C 7.945312 -12.972656 7.878906 -13.039062 7.859375 -13 L 11.8125 -11.234375 C 12.851562 -10.765625 13.632812 -10.207031 14.15625 -9.5625 C 14.6875 -8.914062 14.976562 -8.257812 15.03125 -7.59375 C 15.082031 -6.925781 14.96875 -6.269531 14.6875 -5.625 C 14.445312 -5.09375 14.085938 -4.625 13.609375 -4.21875 C 13.128906 -3.8125 12.5625 -3.523438 11.90625 -3.359375 C 11.257812 -3.191406 10.59375 -3.179688 9.90625 -3.328125 L 9.5625 -3.40625 L 11.078125 2.640625 C 11.304688 3.367188 11.515625 3.941406 11.703125 4.359375 C 11.890625 4.785156 12.023438 5.078125 12.109375 5.234375 C 12.203125 5.390625 12.265625 5.476562 12.296875 5.5 L 9.953125 4.453125 L 7.609375 -4.90625 Z M 8.8125 -4.359375 "/></g></g><g style="fill:#000000;fill-opacity:1;"><g transform="translate(224.083671, 90.652546)"><path style="stroke:none" d="M 1.578125 0.984375 C 1.554688 1.015625 1.648438 1.03125 1.859375 1.03125 C 2.066406 1.039062 2.3125 0.941406 2.59375 0.734375 C 2.882812 0.523438 3.195312 0.15625 3.53125 -0.375 L 9.25 -9.5 C 9.5625 -10 9.742188 -10.414062 9.796875 -10.75 C 9.847656 -11.09375 9.828125 -11.359375 9.734375 -11.546875 C 9.648438 -11.742188 9.597656 -11.828125 9.578125 -11.796875 L 16.296875 -7.578125 L 15.125 -5.703125 C 15.363281 -6.597656 14.929688 -7.394531 13.828125 -8.09375 L 11.234375 -9.703125 L 7.9375 -4.421875 L 11.140625 -2.421875 C 11.390625 -2.265625 11.625 -2.171875 11.84375 -2.140625 C 12.070312 -2.117188 12.253906 -2.125 12.390625 -2.15625 C 12.523438 -2.1875 12.609375 -2.210938 12.640625 -2.234375 L 11.515625 -0.4375 C 11.515625 -0.46875 11.5 -0.550781 11.46875 -0.6875 C 11.4375 -0.820312 11.359375 -0.984375 11.234375 -1.171875 C 11.117188 -1.359375 10.9375 -1.523438 10.6875 -1.671875 L 7.46875 -3.6875 L 4.171875 1.59375 L 7.078125 3.40625 C 7.628906 3.75 8.175781 3.929688 8.71875 3.953125 C 9.257812 3.972656 9.734375 3.859375 10.140625 3.609375 L 8.578125 5.375 Z M 1.578125 0.984375 "/></g></g><g style="fill:#000000;fill-opacity:1;"><g transform="translate(239.331427, 100.617624)"><path style="stroke:none" d="M 7.3125 -1.46875 L 3.984375 0.28125 C 3.472656 0.550781 3.101562 0.820312 2.875 1.09375 C 2.5625 1.457031 2.503906 1.859375 2.703125 2.296875 L 0.328125 0.265625 C 0.429688 0.367188 0.679688 0.394531 1.078125 0.34375 C 1.484375 0.300781 2.101562 0.0664062 2.9375 -0.359375 L 16.09375 -7.015625 L 11.578125 7.0625 C 11.316406 7.875 11.203125 8.488281 11.234375 8.90625 C 11.273438 9.320312 11.351562 9.597656 11.46875 9.734375 L 8.703125 7.375 C 9.085938 7.476562 9.398438 7.390625 9.640625 7.109375 C 9.828125 6.878906 10.023438 6.472656 10.234375 5.890625 L 11.46875 2.0625 Z M 11.765625 1.140625 L 13.734375 -4.859375 L 8.171875 -1.90625 Z M 11.765625 1.140625 "/></g></g><g style="fill:#000000;fill-opacity:1;"><g transform="translate(255.502435, 115.262116)"><path style="stroke:none" d=""/></g></g><g style="fill:#000000;fill-opacity:1;"><g transform="translate(263.802695, 124.434825)"><path style="stroke:none" d="M 9.28125 11.90625 C 8.550781 11.945312 8.019531 11.738281 7.6875 11.28125 C 7.445312 10.9375 7.300781 10.398438 7.25 9.671875 C 7.207031 8.953125 7.226562 8.007812 7.3125 6.84375 C 5.226562 6.507812 3.773438 5.765625 2.953125 4.609375 C 2.179688 3.523438 1.875 2.46875 2.03125 1.4375 C 2.1875 0.414062 2.726562 -0.425781 3.65625 -1.09375 C 4.414062 -1.625 5.203125 -1.851562 6.015625 -1.78125 C 6.835938 -1.707031 7.828125 -1.441406 8.984375 -0.984375 C 9.503906 -2.804688 10.226562 -4.050781 11.15625 -4.71875 C 11.78125 -5.15625 12.40625 -5.382812 13.03125 -5.40625 C 13.664062 -5.425781 14.25 -5.285156 14.78125 -4.984375 C 15.320312 -4.679688 15.769531 -4.273438 16.125 -3.765625 C 16.46875 -3.296875 16.695312 -2.78125 16.8125 -2.21875 C 16.925781 -1.664062 16.890625 -1.132812 16.703125 -0.625 C 16.515625 -0.113281 16.179688 0.3125 15.703125 0.65625 C 15.015625 1.144531 14.234375 1.332031 13.359375 1.21875 C 12.484375 1.113281 11.425781 0.816406 10.1875 0.328125 C 9.601562 2.398438 9.195312 4.3125 8.96875 6.0625 C 10.050781 6.007812 10.972656 5.921875 11.734375 5.796875 C 12.503906 5.671875 13.117188 5.441406 13.578125 5.109375 C 14.015625 4.796875 14.269531 4.398438 14.34375 3.921875 L 16 6.234375 C 15.519531 6.148438 14.492188 6.269531 12.921875 6.59375 C 11.804688 6.832031 10.460938 6.941406 8.890625 6.921875 C 8.910156 7.035156 8.90625 7.203125 8.875 7.421875 C 8.832031 8.359375 8.832031 9.144531 8.875 9.78125 C 8.914062 10.425781 9.078125 10.945312 9.359375 11.34375 C 9.441406 11.46875 9.675781 11.609375 10.0625 11.765625 C 9.800781 11.847656 9.539062 11.894531 9.28125 11.90625 Z M 15.5 -3.5 C 15.070312 -4.09375 14.578125 -4.40625 14.015625 -4.4375 C 13.453125 -4.476562 12.925781 -4.320312 12.4375 -3.96875 C 11.988281 -3.65625 11.59375 -3.160156 11.25 -2.484375 C 10.90625 -1.804688 10.617188 -1.097656 10.390625 -0.359375 C 11.367188 0.0664062 12.1875 0.28125 12.84375 0.28125 C 13.507812 0.289062 14.140625 0.0859375 14.734375 -0.328125 C 15.378906 -0.796875 15.75 -1.320312 15.84375 -1.90625 C 15.945312 -2.5 15.832031 -3.03125 15.5 -3.5 Z M 8.734375 -0.25 C 7.929688 -0.582031 7.21875 -0.753906 6.59375 -0.765625 C 5.96875 -0.785156 5.390625 -0.609375 4.859375 -0.234375 C 4.390625 0.0976562 4.035156 0.535156 3.796875 1.078125 C 3.554688 1.617188 3.457031 2.1875 3.5 2.78125 C 3.550781 3.375 3.742188 3.910156 4.078125 4.390625 C 4.441406 4.898438 4.867188 5.253906 5.359375 5.453125 C 5.859375 5.660156 6.539062 5.835938 7.40625 5.984375 C 7.53125 4.992188 7.710938 3.941406 7.953125 2.828125 C 8.203125 1.710938 8.460938 0.6875 8.734375 -0.25 Z M 8.734375 -0.25 "/></g></g><g style="fill:#000000;fill-opacity:1;"><g transform="translate(276.259808, 143.250984)"><path style="stroke:none" d=""/></g></g><g style="fill:#000000;fill-opacity:1;"><g transform="translate(281.998122, 154.22496)"><path style="stroke:none" d="M 7.125 2.203125 L 3.359375 2.15625 C 2.785156 2.144531 2.335938 2.203125 2.015625 2.328125 C 1.566406 2.503906 1.320312 2.832031 1.28125 3.3125 L 0.15625 0.390625 C 0.207031 0.523438 0.414062 0.671875 0.78125 0.828125 C 1.15625 0.984375 1.8125 1.070312 2.75 1.09375 L 17.484375 1.546875 L 6.796875 11.734375 C 6.171875 12.328125 5.773438 12.816406 5.609375 13.203125 C 5.453125 13.585938 5.390625 13.863281 5.421875 14.03125 L 4.109375 10.640625 C 4.410156 10.921875 4.734375 10.992188 5.078125 10.859375 C 5.359375 10.753906 5.722656 10.488281 6.171875 10.0625 L 9.078125 7.296875 Z M 9.796875 6.625 L 14.390625 2.3125 L 8.09375 2.234375 Z M 9.796875 6.625 "/></g></g><g style="fill:#000000;fill-opacity:1;"><g transform="translate(289.243226, 174.694316)"><path style="stroke:none" d="M 13.328125 -0.203125 C 13.890625 -0.335938 14.300781 -0.503906 14.5625 -0.703125 C 14.832031 -0.898438 14.992188 -1.09375 15.046875 -1.28125 C 15.109375 -1.476562 15.128906 -1.570312 15.109375 -1.5625 L 15.890625 1.828125 C 15.910156 1.816406 15.851562 1.734375 15.71875 1.578125 C 15.582031 1.429688 15.347656 1.320312 15.015625 1.25 C 14.691406 1.175781 14.25 1.207031 13.6875 1.34375 L 1.84375 4.0625 L 2.640625 7.5625 C 2.785156 8.195312 3.039062 8.71875 3.40625 9.125 C 3.78125 9.539062 4.195312 9.800781 4.65625 9.90625 L 2.3125 10.03125 L 0.421875 1.8125 C 0.378906 1.820312 0.429688 1.898438 0.578125 2.046875 C 0.722656 2.191406 0.96875 2.289062 1.3125 2.34375 C 1.664062 2.40625 2.144531 2.367188 2.75 2.234375 Z M 13.328125 -0.203125 "/></g></g><g style="fill:#000000;fill-opacity:1;"><g transform="translate(292.822002, 192.13668)"><path style="stroke:none" d="M 0.171875 1.84375 C 0.128906 1.84375 0.171875 1.925781 0.296875 2.09375 C 0.429688 2.257812 0.664062 2.394531 1 2.5 C 1.34375 2.601562 1.820312 2.628906 2.4375 2.578125 L 13.15625 1.546875 C 13.75 1.484375 14.195312 1.367188 14.5 1.203125 C 14.800781 1.035156 15 0.859375 15.09375 0.671875 C 15.195312 0.484375 15.226562 0.394531 15.1875 0.40625 L 15.953125 8.3125 L 13.75 8.515625 C 14.601562 8.160156 14.960938 7.332031 14.828125 6.03125 L 14.546875 3 L 8.359375 3.59375 L 8.71875 7.359375 C 8.75 7.640625 8.820312 7.875 8.9375 8.0625 C 9.050781 8.257812 9.160156 8.40625 9.265625 8.5 C 9.367188 8.59375 9.4375 8.644531 9.46875 8.65625 L 7.359375 8.859375 C 7.390625 8.835938 7.445312 8.769531 7.53125 8.65625 C 7.625 8.550781 7.707031 8.394531 7.78125 8.1875 C 7.851562 7.988281 7.875 7.75 7.84375 7.46875 L 7.484375 3.6875 L 1.296875 4.28125 L 1.625 7.6875 C 1.6875 8.332031 1.875 8.878906 2.1875 9.328125 C 2.507812 9.773438 2.882812 10.082031 3.3125 10.25 L 0.96875 10.078125 Z M 0.171875 1.84375 "/></g></g><g style="fill:#000000;fill-opacity:1;"><g transform="translate(294.23406, 210.286459)"><path style="stroke:none" d="M -0.5625 11.21875 C -0.53125 11.476562 -0.40625 11.613281 -0.1875 11.625 C 0.0703125 11.644531 0.375 11.550781 0.71875 11.34375 C 1.0625 11.144531 1.253906 11.035156 1.296875 11.015625 L 6.171875 8.171875 L 1.75 4.515625 C 1.46875 4.285156 1.21875 4.101562 1 3.96875 C 0.78125 3.832031 0.570312 3.757812 0.375 3.75 C 0.0625 3.726562 -0.132812 3.953125 -0.21875 4.421875 L -0.0625 1.140625 C -0.09375 1.140625 -0.0625 1.226562 0.03125 1.40625 C 0.132812 1.59375 0.332031 1.859375 0.625 2.203125 C 0.914062 2.546875 1.363281 2.96875 1.96875 3.46875 L 7.03125 7.703125 L 12.671875 4.453125 C 13.328125 4.078125 13.820312 3.734375 14.15625 3.421875 C 14.488281 3.117188 14.710938 2.867188 14.828125 2.671875 C 14.953125 2.484375 15.003906 2.382812 14.984375 2.375 L 14.796875 6.03125 C 14.742188 5.75 14.609375 5.601562 14.390625 5.59375 C 14.171875 5.582031 13.804688 5.726562 13.296875 6.03125 L 8.40625 8.8125 L 12.46875 12.203125 C 13.039062 12.691406 13.507812 12.945312 13.875 12.96875 C 14.207031 12.976562 14.410156 12.765625 14.484375 12.328125 L 14.3125 15.59375 C 14.320312 15.59375 14.289062 15.5 14.21875 15.3125 C 14.15625 15.132812 14 14.894531 13.75 14.59375 C 13.507812 14.289062 13.15625 13.945312 12.6875 13.5625 L 7.546875 9.3125 L 1.921875 12.546875 C 1.171875 12.984375 0.597656 13.375 0.203125 13.71875 C -0.191406 14.0625 -0.457031 14.335938 -0.59375 14.546875 C -0.726562 14.765625 -0.78125 14.875 -0.75 14.875 Z M -0.5625 11.21875 "/></g></g><g style="fill:#000000;fill-opacity:1;"><g transform="translate(292.385649, 232.604179)"><path style="stroke:none" d="M -0.328125 1.8125 C -0.367188 1.800781 -0.347656 1.890625 -0.265625 2.078125 C -0.191406 2.273438 -0.0234375 2.46875 0.234375 2.65625 C 0.503906 2.851562 0.925781 3.003906 1.5 3.109375 L 12.328125 5.078125 C 12.898438 5.179688 13.347656 5.195312 13.671875 5.125 C 13.992188 5.050781 14.21875 4.929688 14.34375 4.765625 C 14.46875 4.609375 14.519531 4.53125 14.5 4.53125 L 13.875 7.953125 C 13.894531 7.953125 13.875 7.859375 13.8125 7.671875 C 13.75 7.484375 13.582031 7.285156 13.3125 7.078125 C 13.039062 6.878906 12.617188 6.726562 12.046875 6.625 L 1.21875 4.65625 C 0.644531 4.550781 0.203125 4.546875 -0.109375 4.640625 C -0.429688 4.734375 -0.660156 4.851562 -0.796875 5 C -0.929688 5.15625 -0.984375 5.238281 -0.953125 5.25 Z M -0.328125 1.8125 "/></g></g><g style="fill:#000000;fill-opacity:1;"><g transform="translate(289.693768, 245.981872)"><path style="stroke:none" d="M -1.953125 5.515625 C -1.734375 4.785156 -1.421875 4.117188 -1.015625 3.515625 C -0.609375 2.910156 -0.144531 2.394531 0.375 1.96875 L 2.921875 2.75 C 1.867188 2.820312 0.988281 3.15625 0.28125 3.75 C -0.425781 4.351562 -0.90625 5.054688 -1.15625 5.859375 C -1.40625 6.679688 -1.34375 7.445312 -0.96875 8.15625 C -0.59375 8.863281 -0.0078125 9.335938 0.78125 9.578125 C 1.3125 9.742188 1.800781 9.773438 2.25 9.671875 C 2.695312 9.578125 3.15625 9.335938 3.625 8.953125 C 4.101562 8.578125 4.675781 8.019531 5.34375 7.28125 C 6.28125 6.226562 7.132812 5.519531 7.90625 5.15625 C 8.675781 4.800781 9.492188 4.753906 10.359375 5.015625 C 11.097656 5.242188 11.703125 5.617188 12.171875 6.140625 C 12.640625 6.671875 12.9375 7.289062 13.0625 8 C 13.195312 8.707031 13.148438 9.425781 12.921875 10.15625 C 12.734375 10.78125 12.460938 11.363281 12.109375 11.90625 C 11.753906 12.457031 11.335938 12.9375 10.859375 13.34375 L 8.609375 12.65625 C 9.484375 12.570312 10.234375 12.253906 10.859375 11.703125 C 11.484375 11.148438 11.90625 10.523438 12.125 9.828125 C 12.363281 9.023438 12.296875 8.300781 11.921875 7.65625 C 11.554688 7.007812 11.015625 6.578125 10.296875 6.359375 C 9.785156 6.203125 9.300781 6.21875 8.84375 6.40625 C 8.382812 6.59375 7.960938 6.859375 7.578125 7.203125 C 7.191406 7.546875 6.707031 8.046875 6.125 8.703125 C 5.5 9.367188 4.953125 9.90625 4.484375 10.3125 C 4.015625 10.726562 3.46875 11.019531 2.84375 11.1875 C 2.226562 11.363281 1.550781 11.34375 0.8125 11.125 C -0.03125 10.863281 -0.695312 10.441406 -1.1875 9.859375 C -1.6875 9.273438 -2 8.597656 -2.125 7.828125 C -2.25 7.066406 -2.191406 6.296875 -1.953125 5.515625 Z M -1.953125 5.515625 "/></g></g><g style="fill:#1d1d1d;fill-opacity:1;"><g transform="translate(74.440474, 260.679277)"><path style="stroke:none" d="M 35.34375 -35.015625 C 37.695312 -34.742188 39.796875 -34.082031 41.640625 -33.03125 C 43.484375 -31.988281 44.953125 -30.675781 46.046875 -29.09375 C 47.140625 -27.519531 47.6875 -25.820312 47.6875 -24 C 47.6875 -22.226562 47.171875 -20.539062 46.140625 -18.9375 C 45.117188 -17.332031 43.695312 -16.019531 41.875 -15 L 36.875 -12.078125 C 36.875 -9.492188 35.953125 -7.125 34.109375 -4.96875 C 32.265625 -2.8125 29.785156 -1.222656 26.671875 -0.203125 C 26.585938 -0.203125 26.585938 -0.203125 26.671875 -0.203125 C 24.710938 0.421875 22.644531 0.734375 20.46875 0.734375 L 20 0.796875 C 19.914062 0.796875 19.828125 0.796875 19.734375 0.796875 C 19.648438 0.796875 19.5625 0.773438 19.46875 0.734375 L 18.671875 0.734375 C 16.140625 0.734375 13.835938 0.113281 11.765625 -1.125 C 9.703125 -2.375 8.046875 -4.054688 6.796875 -6.171875 C 5.554688 -8.285156 4.9375 -10.609375 4.9375 -13.140625 C 4.9375 -15.359375 5.398438 -17.410156 6.328125 -19.296875 C 7.265625 -21.191406 8.554688 -22.796875 10.203125 -24.109375 C 11.847656 -25.421875 13.691406 -26.296875 15.734375 -26.734375 C 13.691406 -27.179688 11.847656 -28.0625 10.203125 -29.375 C 8.554688 -30.6875 7.265625 -32.285156 6.328125 -34.171875 C 5.398438 -36.066406 4.9375 -38.125 4.9375 -40.34375 C 4.9375 -42.925781 5.554688 -45.257812 6.796875 -47.34375 C 8.046875 -49.4375 9.703125 -51.113281 11.765625 -52.375 C 13.835938 -53.644531 16.140625 -54.28125 18.671875 -54.28125 L 19.46875 -54.28125 C 19.46875 -54.28125 19.492188 -54.28125 19.546875 -54.28125 C 19.847656 -54.28125 20.085938 -54.28125 20.265625 -54.28125 C 22.492188 -54.28125 24.628906 -53.945312 26.671875 -53.28125 C 29.785156 -52.300781 32.265625 -50.734375 34.109375 -48.578125 C 35.953125 -46.421875 36.875 -44.03125 36.875 -41.40625 C 36.875 -41.1875 36.765625 -41.078125 36.546875 -41.078125 L 34.75 -41.078125 C 34.65625 -41.078125 34.585938 -41.125 34.546875 -41.21875 C 34.453125 -41.300781 34.40625 -41.390625 34.40625 -41.484375 C 34.632812 -42.679688 34.601562 -43.976562 34.3125 -45.375 C 34.019531 -46.78125 33.273438 -48.125 32.078125 -49.40625 C 30.878906 -50.695312 29.007812 -51.789062 26.46875 -52.6875 C 24.46875 -53.300781 22.398438 -53.609375 20.265625 -53.609375 C 20.085938 -53.609375 19.847656 -53.609375 19.546875 -53.609375 C 19.546875 -53.609375 19.519531 -53.609375 19.46875 -53.609375 C 17.25 -53.609375 15.21875 -53.007812 13.375 -51.8125 C 11.53125 -50.613281 10.0625 -49.015625 8.96875 -47.015625 C 7.875 -45.015625 7.328125 -42.789062 7.328125 -40.34375 C 7.328125 -37.894531 7.875 -35.679688 8.96875 -33.703125 C 10.0625 -31.734375 11.519531 -30.144531 13.34375 -28.9375 C 15.164062 -27.738281 17.1875 -27.117188 19.40625 -27.078125 C 19.976562 -28.671875 20.976562 -30.085938 22.40625 -31.328125 C 23.832031 -32.578125 25.546875 -33.535156 27.546875 -34.203125 C 27.546875 -34.203125 27.566406 -34.203125 27.609375 -34.203125 C 29.390625 -34.785156 31.253906 -35.097656 33.203125 -35.140625 C 33.742188 -35.140625 34.234375 -35.117188 34.671875 -35.078125 C 34.804688 -35.078125 35.03125 -35.054688 35.34375 -35.015625 Z M 26.46875 -0.859375 C 28.695312 -1.617188 30.398438 -2.550781 31.578125 -3.65625 C 32.753906 -4.769531 33.550781 -5.9375 33.96875 -7.15625 C 34.394531 -8.382812 34.585938 -9.578125 34.546875 -10.734375 L 25.609375 -5.46875 C 23.160156 -4.039062 21.582031 -2.195312 20.875 0.0625 C 22.832031 0.0195312 24.695312 -0.285156 26.46875 -0.859375 Z M 40.953125 -17 C 42.546875 -17.9375 43.785156 -19.082031 44.671875 -20.4375 C 45.566406 -21.789062 46.015625 -23.222656 46.015625 -24.734375 C 46.015625 -26.335938 45.546875 -27.816406 44.609375 -29.171875 C 43.679688 -30.523438 42.414062 -31.65625 40.8125 -32.5625 C 39.207031 -33.476562 37.382812 -34.070312 35.34375 -34.34375 C 35.300781 -34.34375 35.28125 -34.34375 35.28125 -34.34375 C 34.96875 -34.382812 34.742188 -34.40625 34.609375 -34.40625 C 34.210938 -34.457031 33.742188 -34.484375 33.203125 -34.484375 C 31.335938 -34.484375 29.5625 -34.191406 27.875 -33.609375 C 27.832031 -33.609375 27.8125 -33.609375 27.8125 -33.609375 C 27.757812 -33.609375 27.757812 -33.609375 27.8125 -33.609375 C 25.632812 -32.859375 24.03125 -31.925781 23 -30.8125 C 21.976562 -29.695312 21.34375 -28.539062 21.09375 -27.34375 C 20.851562 -26.144531 20.820312 -25.007812 21 -23.9375 C 21 -23.851562 20.976562 -23.765625 20.9375 -23.671875 C 20.851562 -23.628906 20.765625 -23.609375 20.671875 -23.609375 L 19.140625 -23.609375 C 18.921875 -23.609375 18.8125 -23.695312 18.8125 -23.875 C 18.8125 -24.71875 18.921875 -25.5625 19.140625 -26.40625 C 16.960938 -26.320312 14.972656 -25.675781 13.171875 -24.46875 C 11.367188 -23.269531 9.941406 -21.679688 8.890625 -19.703125 C 7.847656 -17.722656 7.328125 -15.535156 7.328125 -13.140625 C 7.328125 -10.785156 7.847656 -8.628906 8.890625 -6.671875 C 9.941406 -4.710938 11.34375 -3.117188 13.09375 -1.890625 C 14.851562 -0.671875 16.820312 -0.0195312 19 0.0625 C 19.488281 -3.039062 21.378906 -5.550781 24.671875 -7.46875 Z M 40.953125 -17 "/></g></g></g></g></g></svg>